<svg width="18" height="14" viewBox="0 0 18 14" fill="none" xmlns="http://www.w3.org/2000/svg">
<path d="M0 5.03125H18V8.96875H0V5.03125Z" fill="#F9CB38"/>
<path d="M15.1875 0.8125H2.8125C0.948656 0.8125 0 2.19766 0 3.90625V5.03125H18V3.90625C18 2.19766 17.0513 0.8125 15.1875 0.8125Z" fill="#128807"/>
<path d="M0 10.0938C0 11.8023 0.948656 13.1875 2.8125 13.1875H15.1875C17.0513 13.1875 18 11.8023 18 10.0938V8.96875H0V10.0938Z" fill="#EC1C24"/>
<path fill-rule="evenodd" clip-rule="evenodd" d="M6.33279 8.06003C6.21269 7.83588 6.10807 7.60553 6.04479 7.35803C5.85129 6.60006 5.93341 5.875 6.30185 5.18313C6.31233 5.16287 6.32245 5.14243 6.33222 5.12182C6.48241 4.8791 6.65285 4.65269 6.86238 4.45722C7.35204 4.00103 7.92719 3.72878 8.59516 3.67085C9.55985 3.58732 10.3752 3.90485 11.0429 4.60375C11.1922 4.76069 11.3132 4.93928 11.4282 5.12153C11.5474 5.34597 11.6526 5.57688 11.7153 5.8241C11.9105 6.58966 11.8253 7.32091 11.4476 8.01588C11.4405 8.0305 11.4337 8.04503 11.4273 8.05947C11.2797 8.29797 11.1129 8.52156 10.9068 8.7145C10.331 9.25169 9.65069 9.53631 8.86263 9.5231C7.76857 9.50313 6.93522 9.00953 6.35219 8.08732L6.33279 8.06003Z" fill="#0F47AE"/>
<path fill-rule="evenodd" clip-rule="evenodd" d="M9.67014 6.6715L10.5403 6.03953C10.5645 6.0221 10.5926 6.00719 10.6123 5.98582C10.7473 5.84097 10.9197 5.85222 11.1062 5.8691C10.9788 5.96247 10.8595 6.04966 10.7397 6.13628C10.4188 6.36972 10.0996 6.604 9.77702 6.83491C9.73848 6.86275 9.73848 6.88722 9.75086 6.92547C9.86298 7.26635 9.97445 7.60797 10.0853 7.95035C10.0934 7.97566 10.1078 8.00013 10.1024 8.04541C9.99639 7.94528 9.85858 7.90703 9.80992 7.74588C9.64933 7.21825 9.4727 6.69597 9.30198 6.17144L9.29102 6.13544C9.3543 6.13544 9.41195 6.136 9.47017 6.13488C9.50758 6.1346 9.50533 6.1661 9.5118 6.18747C9.56495 6.34582 9.61558 6.50444 9.67014 6.6715Z" fill="#FBDC09"/>
<path fill-rule="evenodd" clip-rule="evenodd" d="M7.87012 8.22063C7.90527 8.11319 7.9348 8.02207 7.96377 7.93122C7.97053 7.91154 7.9837 7.8947 8.00118 7.88341C8.47255 7.54169 8.94309 7.19941 9.41587 6.85713C9.42262 6.85207 9.4319 6.84925 9.4423 6.84363C9.45777 6.88863 9.46987 6.9325 9.48787 6.97441C9.50559 7.01744 9.49912 7.04247 9.45862 7.07003C9.3343 7.15582 9.2128 7.24666 9.09046 7.33553C9.07724 7.34453 9.06149 7.35072 9.0553 7.37125C9.3599 7.59232 9.6614 7.82153 9.97387 8.03388C10.1106 8.12725 10.2053 8.23497 10.2326 8.39866C10.2354 8.41778 10.2571 8.44141 10.2405 8.45575C10.2171 8.47488 10.1994 8.44422 10.184 8.43325C9.77301 8.13675 9.3635 7.83825 8.95546 7.53775C8.90005 7.49697 8.86518 7.49613 8.80893 7.53747C8.50349 7.76416 8.1944 7.98578 7.87152 8.22063" fill="#FBDC09"/>
<path fill-rule="evenodd" clip-rule="evenodd" d="M8.81166 7.20475C8.75738 7.24328 8.7062 7.30713 8.65248 7.30938C8.60382 7.31219 8.55123 7.24891 8.5006 7.21263C8.40076 7.14063 8.3012 7.06778 8.1932 6.99016L8.07029 7.36225C7.97663 7.65138 7.88213 7.94078 7.79016 8.23075C7.77811 8.27478 7.75002 8.3127 7.71141 8.33707C7.64532 8.37897 7.58738 8.43522 7.50245 8.47741L7.9772 7.018C8.02585 6.86753 8.02585 6.8681 7.89957 6.77641L7.07691 6.17875C7.06257 6.16835 7.04457 6.16216 7.03613 6.13628C7.13879 6.13628 7.23891 6.13516 7.33848 6.13657C7.35254 6.13713 7.36745 6.14866 7.3801 6.15766L8.7976 7.1876C8.80126 7.18985 8.80351 7.19435 8.8111 7.20475" fill="#FBDC09"/>
<path fill-rule="evenodd" clip-rule="evenodd" d="M8.73898 4.678C8.77583 4.7891 8.80508 4.87938 8.83602 4.97078C8.8422 4.98878 8.83827 5.0065 8.83236 5.02394C8.65067 5.58325 8.4688 6.14238 8.28673 6.70132C8.28561 6.70497 8.28195 6.70722 8.27492 6.71453C8.23161 6.68275 8.1883 6.64928 8.14302 6.61947C8.11011 6.59725 8.12305 6.57363 8.13177 6.54747C8.17817 6.406 8.22148 6.26341 8.2707 6.12363C8.2887 6.07272 8.28223 6.05866 8.22514 6.05922C7.81452 6.06119 7.40389 6.0595 6.99298 6.06203C6.94061 6.06359 6.88945 6.0461 6.84898 6.01282C6.78852 5.96528 6.72523 5.92113 6.64648 5.86347H6.73902C7.25455 5.86347 7.77092 5.86235 8.28645 5.8646C8.33961 5.86488 8.35958 5.84913 8.37589 5.79878C8.49261 5.42978 8.61383 5.06303 8.73898 4.678Z" fill="#FBDC09"/>
<path fill-rule="evenodd" clip-rule="evenodd" d="M10.6365 5.87782C10.5614 5.93322 10.4852 5.9875 10.4098 6.04432C10.3873 6.06119 10.3631 6.06007 10.3381 6.06007C9.76911 6.06007 9.20183 6.06007 8.63089 6.06063C8.58561 6.06091 8.57071 6.05472 8.58814 6.00466C8.63371 5.86432 8.63146 5.86319 8.77939 5.86319H9.1993C9.13968 5.67869 9.08258 5.5001 9.02493 5.32319C8.94899 5.09003 8.87389 4.85716 8.79627 4.62541C8.78003 4.58246 8.78003 4.53505 8.79627 4.4921C8.82327 4.41757 8.84689 4.34163 8.87305 4.25894C8.89724 4.28116 8.89893 4.30647 8.90624 4.32869C9.06655 4.82003 9.22743 5.31138 9.38521 5.80385C9.40068 5.85138 9.42233 5.8646 9.47099 5.8646C9.83549 5.86235 10.2008 5.86347 10.5651 5.86347H10.6314L10.6354 5.87782" fill="#FBDC09"/>
<path fill-rule="evenodd" clip-rule="evenodd" d="M8.93025 8.30472V8.88157C8.93025 8.9156 8.9339 8.9426 8.88328 8.94457C8.8304 8.94541 8.83012 8.91897 8.83012 8.88044V7.72619C8.83012 7.693 8.82675 7.66544 8.87794 7.66432C8.93053 7.66319 8.93081 7.68963 8.93081 7.72732C8.93006 7.91969 8.92987 8.11216 8.93025 8.30472Z" fill="#F4D80E"/>
<path fill-rule="evenodd" clip-rule="evenodd" d="M7.86433 6.95388C7.8618 6.98594 7.83143 6.982 7.81314 6.98847C7.48558 7.09516 7.15746 7.20157 6.82877 7.30769C6.78955 7.31977 6.75063 7.33281 6.71205 7.34678C6.67774 7.36 6.65805 7.36282 6.64258 7.31613C6.62711 7.26888 6.65046 7.26269 6.68336 7.25228C7.05105 7.13303 7.41827 7.0136 7.78502 6.89397C7.83593 6.87738 7.86658 6.90157 7.86433 6.95388ZM9.92786 6.87963L9.97371 6.89397C10.3408 7.0136 10.7081 7.13303 11.0754 7.25228C11.1083 7.26241 11.1313 7.2686 11.1164 7.31613C11.101 7.36282 11.0816 7.35803 11.0472 7.34678L9.93883 6.98678C9.9183 6.98003 9.88258 6.9806 9.89833 6.93981C9.90705 6.91816 9.90564 6.89088 9.92786 6.87963ZM8.28086 5.68516C8.26821 5.71132 8.24233 5.72257 8.22068 5.73747C8.19649 5.75322 8.1903 5.7251 8.18186 5.71244C8.04883 5.53132 7.91721 5.34963 7.78474 5.16766C7.68433 5.02844 7.58449 4.88866 7.48099 4.75169C7.45399 4.71569 7.47536 4.70585 7.49871 4.68897C7.52121 4.6721 7.53724 4.65719 7.56255 4.69235C7.7943 5.01466 8.02774 5.33416 8.26061 5.65535C8.26699 5.66435 8.27374 5.67428 8.28086 5.68516ZM10.2969 4.72272C10.2859 4.73791 10.2783 4.74972 10.2693 4.76069L9.58277 5.70597C9.56393 5.73325 9.55127 5.75238 9.51583 5.72313C9.48743 5.69978 9.47336 5.68685 9.50093 5.64944C9.73408 5.33191 9.96499 5.01269 10.197 4.69432C10.206 4.68194 10.2114 4.65438 10.237 4.67266C10.2586 4.68813 10.2836 4.69966 10.2969 4.72272Z" fill="#FADC09"/>
</svg>
