<svg width="56" height="55" viewBox="0 0 56 55" fill="none" xmlns="http://www.w3.org/2000/svg">
<path d="M19.5008 42.3077H8.15615C7.67274 42.3077 7.20912 42.0848 6.86729 41.6881C6.52546 41.2914 6.33342 40.7533 6.33342 40.1923V4.23077H2.68796C2.20455 4.23077 1.74093 4.0079 1.3991 3.61119C1.05727 3.21448 0.865234 2.67642 0.865234 2.11538C0.865234 1.55435 1.05727 1.01629 1.3991 0.619582C1.74093 0.222871 2.20455 0 2.68796 0H53.7244C54.2078 0 54.6714 0.222871 55.0133 0.619582C55.3551 1.01629 55.5471 1.55435 55.5471 2.11538C55.5471 2.67642 55.3551 3.21448 55.0133 3.61119C54.6714 4.0079 54.2078 4.23077 53.7244 4.23077H50.0789V40.1923C50.0789 40.7533 49.8869 41.2914 49.5451 41.6881C49.2032 42.0848 48.7396 42.3077 48.2562 42.3077H36.9334L43.2473 55H39.0405L32.7266 42.3077H23.7077L17.3937 55H13.1869L19.5008 42.3077ZM46.4335 4.23077H9.97888V38.0769H46.4335V4.23077ZM18.5603 26.8823C18.3908 27.079 18.1896 27.235 17.9682 27.3414C17.7468 27.4479 17.5095 27.5027 17.2698 27.5027C17.0301 27.5027 16.7928 27.4479 16.5714 27.3414C16.35 27.235 16.1488 27.079 15.9793 26.8823C15.8098 26.6856 15.6754 26.4521 15.5837 26.1952C15.492 25.9382 15.4448 25.6628 15.4448 25.3846C15.4448 25.1065 15.492 24.831 15.5837 24.5741C15.6754 24.3171 15.8098 24.0836 15.9793 23.8869L24.3894 14.1308L31.5345 20.35L37.7208 11.3723C37.8656 11.1406 38.0494 10.9455 38.2611 10.7987C38.4728 10.6518 38.7079 10.5564 38.9523 10.5181C39.1967 10.4798 39.4452 10.4994 39.6829 10.5758C39.9205 10.6522 40.1423 10.7838 40.3349 10.9626C40.5275 11.1414 40.6868 11.3636 40.8032 11.6159C40.9196 11.8682 40.9906 12.1453 41.0121 12.4305C41.0335 12.7156 41.0049 13.0028 40.9279 13.2747C40.851 13.5466 40.7273 13.7975 40.5643 14.0123L32.1724 26.1927L24.7321 19.7154L18.5603 26.8781V26.8823Z" fill="#02C27D"/>
</svg>
