<svg xmlns="http://www.w3.org/2000/svg" fill="none" viewBox="225 347 770 440"><path d="M526 357C526 351.477 530.477 347 536 347H681C686.523 347 691 351.477 691 357V421C691 426.523 686.523 431 681 431H536C530.477 431 526 426.523 526 421V357Z" fill="url(#paint0_linear_1266_629)" fill-opacity="0.14"></path><path d="M648.091 403.4C644.064 403.4 641.064 402.4 639.091 400.4C637.144 398.373 636.171 395.386 636.171 391.44V374.8H641.331V391.4C641.331 393.906 641.864 395.8 642.931 397.08C644.024 398.36 645.744 399 648.091 399C650.331 399 652.011 398.36 653.131 397.08C654.278 395.8 654.851 393.906 654.851 391.4V374.8H659.931V391.44C659.931 395.386 658.931 398.373 656.931 400.4C654.958 402.4 652.011 403.4 648.091 403.4Z" fill="white" fill-opacity="0.86"></path><path d="M618.055 403V389.68L619.135 392.76L607.015 374.8H612.975L621.295 387.6H620.175L628.495 374.8H634.255L622.175 392.76L623.215 389.68V403H618.055Z" fill="white" fill-opacity="0.86"></path><path d="M587.503 403V374.8H606.503V378.84H592.463V386.64H605.583V390.72H592.463V398.92H606.503V403H587.503Z" fill="white" fill-opacity="0.86"></path><path d="M565.12 403V374.8H570.28V398.64H583.56V403H565.12Z" fill="white" fill-opacity="0.86"></path><path d="M391.5 729.827C391.155 729.827 390.84 729.743 390.555 729.574C390.27 729.402 390.043 729.173 389.874 728.888C389.705 728.603 389.619 728.288 389.616 727.943C389.616 727.595 389.7 727.28 389.869 726.999C390.038 726.714 390.265 726.487 390.55 726.317C390.839 726.145 391.155 726.059 391.5 726.059C391.848 726.059 392.163 726.145 392.445 726.317C392.73 726.487 392.957 726.714 393.126 726.999C393.298 727.28 393.384 727.595 393.384 727.943C393.384 728.288 393.298 728.603 393.126 728.888C392.957 729.173 392.73 729.402 392.445 729.574C392.163 729.743 391.848 729.827 391.5 729.827ZM403.352 732V721.818H409.259V722.653H404.282V726.487H408.945V727.322H404.282V731.165H409.358V732H403.352ZM412.646 727.227V732H411.761V724.364H412.621V725.562H412.7C412.879 725.171 413.158 724.857 413.536 724.622C413.917 724.384 414.387 724.264 414.948 724.264C415.461 724.264 415.912 724.372 416.3 724.587C416.691 724.799 416.994 725.113 417.21 725.527C417.428 725.941 417.538 726.45 417.538 727.053V732H416.653V727.108C416.653 726.482 416.477 725.986 416.126 725.621C415.778 725.257 415.311 725.075 414.724 725.075C414.323 725.075 413.967 725.161 413.655 725.333C413.343 725.505 413.097 725.754 412.914 726.079C412.735 726.4 412.646 726.783 412.646 727.227ZM423.062 735.023C422.541 735.023 422.086 734.955 421.694 734.819C421.303 734.686 420.974 734.504 420.705 734.272C420.437 734.04 420.228 733.78 420.079 733.491L420.804 733.014C420.914 733.206 421.06 733.395 421.242 733.581C421.428 733.767 421.668 733.921 421.963 734.043C422.261 734.166 422.627 734.227 423.062 734.227C423.738 734.227 424.283 734.058 424.697 733.72C425.115 733.382 425.324 732.857 425.324 732.144V730.424H425.244C425.141 730.656 424.994 730.888 424.802 731.12C424.609 731.349 424.358 731.539 424.046 731.692C423.738 731.844 423.355 731.92 422.898 731.92C422.288 731.92 421.746 731.77 421.272 731.468C420.801 731.166 420.43 730.736 420.158 730.175C419.89 729.612 419.755 728.941 419.755 728.162C419.755 727.39 419.886 726.71 420.148 726.124C420.413 725.537 420.783 725.08 421.257 724.751C421.731 724.423 422.283 724.259 422.912 724.259C423.38 724.259 423.768 724.342 424.076 724.508C424.384 724.67 424.631 724.872 424.817 725.114C425.005 725.356 425.153 725.592 425.259 725.82H425.349V724.364H426.214V732.199C426.214 732.845 426.076 733.377 425.801 733.795C425.526 734.212 425.151 734.521 424.677 734.719C424.203 734.922 423.665 735.023 423.062 735.023ZM423.002 731.11C423.492 731.11 423.912 730.992 424.26 730.757C424.608 730.518 424.875 730.177 425.06 729.733C425.246 729.289 425.339 728.76 425.339 728.147C425.339 727.55 425.247 727.022 425.065 726.561C424.883 726.097 424.618 725.732 424.27 725.467C423.925 725.199 423.502 725.065 423.002 725.065C422.492 725.065 422.061 725.202 421.709 725.477C421.358 725.752 421.093 726.124 420.914 726.591C420.735 727.055 420.645 727.574 420.645 728.147C420.645 728.73 420.737 729.246 420.919 729.693C421.101 730.137 421.368 730.485 421.719 730.737C422.071 730.986 422.498 731.11 423.002 731.11ZM430.969 732.174C430.509 732.174 430.088 732.085 429.706 731.906C429.325 731.723 429.022 731.461 428.797 731.12C428.571 730.775 428.459 730.358 428.459 729.867C428.459 729.489 428.53 729.171 428.672 728.913C428.815 728.654 429.017 728.442 429.279 728.276C429.541 728.111 429.851 727.98 430.209 727.884C430.567 727.787 430.961 727.713 431.392 727.66C431.819 727.607 432.181 727.56 432.476 727.521C432.774 727.481 433.001 727.418 433.157 727.332C433.313 727.246 433.39 727.106 433.39 726.914V726.735C433.39 726.215 433.235 725.805 432.923 725.507C432.615 725.205 432.171 725.055 431.591 725.055C431.041 725.055 430.591 725.176 430.243 725.418C429.899 725.66 429.657 725.945 429.518 726.273L428.677 725.969C428.85 725.552 429.088 725.219 429.393 724.97C429.698 724.718 430.04 724.538 430.417 724.428C430.795 724.316 431.178 724.259 431.566 724.259C431.858 724.259 432.161 724.297 432.476 724.374C432.794 724.45 433.089 724.582 433.361 724.771C433.632 724.957 433.853 725.217 434.022 725.552C434.191 725.883 434.275 726.304 434.275 726.815V732H433.39V730.792H433.336C433.23 731.017 433.072 731.236 432.863 731.448C432.655 731.66 432.393 731.834 432.078 731.97C431.763 732.106 431.394 732.174 430.969 732.174ZM431.089 731.364C431.559 731.364 431.967 731.259 432.312 731.05C432.656 730.842 432.921 730.565 433.107 730.22C433.296 729.872 433.39 729.489 433.39 729.072V727.968C433.324 728.031 433.213 728.087 433.057 728.137C432.905 728.187 432.728 728.232 432.525 728.271C432.327 728.308 432.128 728.339 431.929 728.366C431.73 728.392 431.551 728.415 431.392 728.435C430.961 728.488 430.593 728.571 430.288 728.684C429.983 728.797 429.75 728.952 429.587 729.151C429.425 729.347 429.344 729.599 429.344 729.907C429.344 730.371 429.509 730.731 429.841 730.986C430.172 731.238 430.588 731.364 431.089 731.364ZM439.823 735.023C439.302 735.023 438.847 734.955 438.456 734.819C438.064 734.686 437.735 734.504 437.466 734.272C437.198 734.04 436.989 733.78 436.84 733.491L437.566 733.014C437.675 733.206 437.821 733.395 438.003 733.581C438.189 733.767 438.429 733.921 438.724 734.043C439.022 734.166 439.389 734.227 439.823 734.227C440.499 734.227 441.044 734.058 441.458 733.72C441.876 733.382 442.085 732.857 442.085 732.144V730.424H442.005C441.903 730.656 441.755 730.888 441.563 731.12C441.371 731.349 441.119 731.539 440.807 731.692C440.499 731.844 440.116 731.92 439.659 731.92C439.049 731.92 438.507 731.77 438.033 731.468C437.562 731.166 437.191 730.736 436.919 730.175C436.651 729.612 436.517 728.941 436.517 728.162C436.517 727.39 436.648 726.71 436.909 726.124C437.175 725.537 437.544 725.08 438.018 724.751C438.492 724.423 439.044 724.259 439.674 724.259C440.141 724.259 440.529 724.342 440.837 724.508C441.145 724.67 441.392 724.872 441.578 725.114C441.767 725.356 441.914 725.592 442.02 725.82H442.11V724.364H442.975V732.199C442.975 732.845 442.837 733.377 442.562 733.795C442.287 734.212 441.912 734.521 441.439 734.719C440.965 734.922 440.426 735.023 439.823 735.023ZM439.763 731.11C440.254 731.11 440.673 730.992 441.021 730.757C441.369 730.518 441.636 730.177 441.821 729.733C442.007 729.289 442.1 728.76 442.1 728.147C442.1 727.55 442.009 727.022 441.826 726.561C441.644 726.097 441.379 725.732 441.031 725.467C440.686 725.199 440.264 725.065 439.763 725.065C439.253 725.065 438.822 725.202 438.47 725.477C438.119 725.752 437.854 726.124 437.675 726.591C437.496 727.055 437.407 727.574 437.407 728.147C437.407 728.73 437.498 729.246 437.68 729.693C437.862 730.137 438.129 730.485 438.48 730.737C438.832 730.986 439.259 731.11 439.763 731.11ZM448.685 732.159C447.972 732.159 447.356 731.993 446.836 731.662C446.315 731.327 445.912 730.865 445.627 730.275C445.346 729.682 445.205 728.999 445.205 728.227C445.205 727.458 445.346 726.775 445.627 726.178C445.912 725.578 446.305 725.109 446.806 724.771C447.31 724.43 447.891 724.259 448.551 724.259C448.965 724.259 449.364 724.335 449.749 724.488C450.133 724.637 450.478 724.867 450.783 725.179C451.091 725.487 451.335 725.877 451.514 726.347C451.693 726.815 451.782 727.368 451.782 728.008V728.445H445.816V727.665H450.877C450.877 727.174 450.778 726.733 450.579 726.342C450.384 725.948 450.11 725.636 449.759 725.408C449.411 725.179 449.008 725.065 448.551 725.065C448.067 725.065 447.641 725.194 447.273 725.452C446.905 725.711 446.617 726.052 446.408 726.477C446.202 726.901 446.098 727.365 446.095 727.869V728.336C446.095 728.942 446.199 729.473 446.408 729.927C446.62 730.378 446.92 730.727 447.308 730.976C447.696 731.224 448.155 731.349 448.685 731.349C449.046 731.349 449.363 731.292 449.635 731.18C449.91 731.067 450.14 730.916 450.326 730.727C450.515 730.535 450.657 730.325 450.753 730.096L451.593 730.369C451.477 730.691 451.287 730.987 451.022 731.259C450.76 731.531 450.432 731.75 450.037 731.915C449.646 732.078 449.195 732.159 448.685 732.159ZM459.344 721.818V732H458.414V721.818H459.344ZM463.032 727.227V732H462.147V724.364H463.007V725.562H463.086C463.265 725.171 463.544 724.857 463.921 724.622C464.303 724.384 464.773 724.264 465.333 724.264C465.847 724.264 466.298 724.372 466.686 724.587C467.077 724.799 467.38 725.113 467.595 725.527C467.814 725.941 467.924 726.45 467.924 727.053V732H467.039V727.108C467.039 726.482 466.863 725.986 466.512 725.621C466.164 725.257 465.696 725.075 465.11 725.075C464.709 725.075 464.352 725.161 464.041 725.333C463.729 725.505 463.482 725.754 463.3 726.079C463.121 726.4 463.032 726.783 463.032 727.227ZM474.935 721.818H476.009L479.703 730.688H479.793L483.487 721.818H484.56V732H483.685V723.782H483.606L480.171 732H479.325L475.89 723.782H475.81V732H474.935V721.818ZM487.374 732V724.364H488.263V732H487.374ZM487.826 723.051C487.644 723.051 487.488 722.99 487.359 722.867C487.229 722.741 487.165 722.59 487.165 722.415C487.165 722.239 487.229 722.09 487.359 721.967C487.488 721.841 487.644 721.778 487.826 721.778C488.008 721.778 488.164 721.841 488.293 721.967C488.423 722.09 488.487 722.239 488.487 722.415C488.487 722.59 488.423 722.741 488.293 722.867C488.164 722.99 488.008 723.051 487.826 723.051ZM493.867 732.159C493.184 732.159 492.589 731.988 492.082 731.647C491.578 731.306 491.187 730.838 490.909 730.245C490.63 729.652 490.491 728.976 490.491 728.217C490.491 727.451 490.632 726.77 490.914 726.173C491.199 725.577 491.593 725.109 492.097 724.771C492.601 724.43 493.186 724.259 493.852 724.259C494.362 724.259 494.825 724.359 495.239 724.558C495.653 724.753 495.995 725.03 496.263 725.388C496.535 725.742 496.706 726.157 496.775 726.631H495.88C495.787 726.2 495.564 725.832 495.209 725.527C494.858 725.219 494.41 725.065 493.867 725.065C493.38 725.065 492.949 725.197 492.574 725.462C492.2 725.724 491.906 726.09 491.694 726.561C491.485 727.028 491.381 727.57 491.381 728.187C491.381 728.807 491.484 729.355 491.689 729.832C491.895 730.306 492.183 730.678 492.554 730.946C492.929 731.214 493.366 731.349 493.867 731.349C494.205 731.349 494.513 731.286 494.791 731.16C495.073 731.031 495.309 730.848 495.497 730.613C495.69 730.378 495.819 730.098 495.885 729.773H496.78C496.714 730.233 496.55 730.644 496.288 731.006C496.029 731.364 495.693 731.645 495.279 731.851C494.868 732.056 494.397 732.159 493.867 732.159ZM498.957 732V724.364H499.817V725.537H499.881C500.034 725.152 500.299 724.843 500.677 724.607C501.058 724.369 501.489 724.249 501.97 724.249C502.042 724.249 502.124 724.251 502.213 724.254C502.303 724.258 502.377 724.261 502.437 724.264V725.164C502.397 725.157 502.327 725.147 502.228 725.134C502.129 725.121 502.021 725.114 501.905 725.114C501.507 725.114 501.153 725.199 500.841 725.368C500.533 725.534 500.289 725.764 500.11 726.059C499.931 726.354 499.842 726.69 499.842 727.068V732H498.957ZM506.963 732.159C506.303 732.159 505.72 731.992 505.213 731.657C504.709 731.322 504.314 730.86 504.029 730.27C503.744 729.677 503.602 728.992 503.602 728.217C503.602 727.434 503.744 726.747 504.029 726.153C504.314 725.557 504.709 725.093 505.213 724.761C505.72 724.427 506.303 724.259 506.963 724.259C507.622 724.259 508.204 724.427 508.708 724.761C509.211 725.096 509.606 725.56 509.891 726.153C510.179 726.747 510.323 727.434 510.323 728.217C510.323 728.992 510.181 729.677 509.896 730.27C509.611 730.86 509.215 731.322 508.708 731.657C508.204 731.992 507.622 732.159 506.963 732.159ZM506.963 731.349C507.493 731.349 507.942 731.206 508.31 730.921C508.678 730.636 508.956 730.257 509.145 729.783C509.337 729.309 509.433 728.787 509.433 728.217C509.433 727.647 509.337 727.123 509.145 726.646C508.956 726.168 508.678 725.786 508.31 725.497C507.942 725.209 507.493 725.065 506.963 725.065C506.436 725.065 505.987 725.209 505.615 725.497C505.247 725.786 504.967 726.168 504.775 726.646C504.586 727.123 504.492 727.647 504.492 728.217C504.492 728.787 504.586 729.309 504.775 729.783C504.967 730.257 505.247 730.636 505.615 730.921C505.983 731.206 506.432 731.349 506.963 731.349ZM513.982 732L511.675 724.364H512.609L514.419 730.663H514.484L516.288 724.364H517.228L519.018 730.648H519.087L520.897 724.364H521.832L519.525 732H518.61L516.8 725.741H516.706L514.896 732H513.982ZM526.54 732.159C525.881 732.159 525.297 731.992 524.79 731.657C524.286 731.322 523.892 730.86 523.607 730.27C523.322 729.677 523.179 728.992 523.179 728.217C523.179 727.434 523.322 726.747 523.607 726.153C523.892 725.557 524.286 725.093 524.79 724.761C525.297 724.427 525.881 724.259 526.54 724.259C527.2 724.259 527.781 724.427 528.285 724.761C528.789 725.096 529.183 725.56 529.468 726.153C529.757 726.747 529.901 727.434 529.901 728.217C529.901 728.992 529.758 729.677 529.473 730.27C529.188 730.86 528.792 731.322 528.285 731.657C527.781 731.992 527.2 732.159 526.54 732.159ZM526.54 731.349C527.07 731.349 527.52 731.206 527.887 730.921C528.255 730.636 528.534 730.257 528.723 729.783C528.915 729.309 529.011 728.787 529.011 728.217C529.011 727.647 528.915 727.123 528.723 726.646C528.534 726.168 528.255 725.786 527.887 725.497C527.52 725.209 527.07 725.065 526.54 725.065C526.013 725.065 525.564 725.209 525.193 725.497C524.825 725.786 524.545 726.168 524.353 726.646C524.164 727.123 524.069 727.647 524.069 728.217C524.069 728.787 524.164 729.309 524.353 729.783C524.545 730.257 524.825 730.636 525.193 730.921C525.561 731.206 526.01 731.349 526.54 731.349ZM532.124 732V724.364H532.984V725.537H533.048C533.201 725.152 533.466 724.843 533.844 724.607C534.225 724.369 534.656 724.249 535.136 724.249C535.209 724.249 535.291 724.251 535.38 724.254C535.47 724.258 535.544 724.261 535.604 724.264V725.164C535.564 725.157 535.494 725.147 535.395 725.134C535.296 725.121 535.188 725.114 535.072 725.114C534.674 725.114 534.319 725.199 534.008 725.368C533.7 725.534 533.456 725.764 533.277 726.059C533.098 726.354 533.009 726.69 533.009 727.068V732H532.124ZM538.199 729.116L538.189 727.958H538.388L541.968 724.364H543.086L539.552 727.903L539.472 727.918L538.199 729.116ZM537.394 732V721.818H538.279V732H537.394ZM542.152 732L539.049 728.077L539.686 727.466L543.285 732H542.152ZM548.814 722.653V721.818H556.197V722.653H552.971V732H552.041V722.653H548.814ZM559.48 732.174C559.019 732.174 558.598 732.085 558.217 731.906C557.836 731.723 557.533 731.461 557.307 731.12C557.082 730.775 556.969 730.358 556.969 729.867C556.969 729.489 557.041 729.171 557.183 728.913C557.326 728.654 557.528 728.442 557.79 728.276C558.051 728.111 558.361 727.98 558.719 727.884C559.077 727.787 559.472 727.713 559.903 727.66C560.33 727.607 560.691 727.56 560.986 727.521C561.285 727.481 561.512 727.418 561.667 727.332C561.823 727.246 561.901 727.106 561.901 726.914V726.735C561.901 726.215 561.745 725.805 561.434 725.507C561.126 725.205 560.681 725.055 560.101 725.055C559.551 725.055 559.102 725.176 558.754 725.418C558.409 725.66 558.167 725.945 558.028 726.273L557.188 725.969C557.36 725.552 557.599 725.219 557.904 724.97C558.209 724.718 558.55 724.538 558.928 724.428C559.306 724.316 559.689 724.259 560.077 724.259C560.368 724.259 560.671 724.297 560.986 724.374C561.305 724.45 561.6 724.582 561.871 724.771C562.143 724.957 562.363 725.217 562.533 725.552C562.702 725.883 562.786 726.304 562.786 726.815V732H561.901V730.792H561.846C561.74 731.017 561.583 731.236 561.374 731.448C561.165 731.66 560.904 731.834 560.589 731.97C560.274 732.106 559.904 732.174 559.48 732.174ZM559.599 731.364C560.07 731.364 560.478 731.259 560.822 731.05C561.167 730.842 561.432 730.565 561.618 730.22C561.807 729.872 561.901 729.489 561.901 729.072V727.968C561.835 728.031 561.724 728.087 561.568 728.137C561.416 728.187 561.238 728.232 561.036 728.271C560.837 728.308 560.638 728.339 560.439 728.366C560.241 728.392 560.062 728.415 559.903 728.435C559.472 728.488 559.104 728.571 558.799 728.684C558.494 728.797 558.26 728.952 558.098 729.151C557.935 729.347 557.854 729.599 557.854 729.907C557.854 730.371 558.02 730.731 558.351 730.986C558.683 731.238 559.099 731.364 559.599 731.364ZM570.551 726.039L569.74 726.268C569.661 726.039 569.548 725.832 569.402 725.646C569.257 725.461 569.066 725.313 568.831 725.204C568.599 725.094 568.31 725.04 567.966 725.04C567.449 725.04 567.024 725.162 566.693 725.408C566.361 725.653 566.196 725.969 566.196 726.357C566.196 726.685 566.308 726.952 566.534 727.158C566.762 727.36 567.114 727.521 567.588 727.64L568.741 727.923C569.381 728.079 569.86 728.326 570.178 728.664C570.499 729.002 570.66 729.426 570.66 729.937C570.66 730.368 570.541 730.75 570.302 731.085C570.064 731.42 569.73 731.683 569.303 731.876C568.879 732.065 568.387 732.159 567.826 732.159C567.081 732.159 566.466 731.992 565.982 731.657C565.498 731.319 565.188 730.832 565.052 730.195L565.902 729.987C566.012 730.441 566.226 730.784 566.544 731.016C566.865 731.248 567.288 731.364 567.811 731.364C568.398 731.364 568.867 731.233 569.218 730.971C569.57 730.706 569.745 730.374 569.745 729.977C569.745 729.668 569.643 729.41 569.437 729.201C569.232 728.989 568.92 728.833 568.503 728.734L567.255 728.435C566.592 728.276 566.101 728.024 565.783 727.68C565.465 727.335 565.306 726.907 565.306 726.397C565.306 725.976 565.42 725.607 565.649 725.288C565.878 724.967 566.192 724.715 566.593 724.533C566.994 724.35 567.452 724.259 567.966 724.259C568.665 724.259 569.223 724.418 569.641 724.737C570.062 725.051 570.365 725.486 570.551 726.039ZM573.683 729.116L573.673 727.958H573.872L577.452 724.364H578.57L575.036 727.903L574.956 727.918L573.683 729.116ZM572.878 732V721.818H573.763V732H572.878ZM577.636 732L574.533 728.077L575.17 727.466L578.769 732H577.636ZM391.5 746.827C391.155 746.827 390.84 746.743 390.555 746.574C390.27 746.402 390.043 746.173 389.874 745.888C389.705 745.603 389.619 745.288 389.616 744.943C389.616 744.595 389.7 744.28 389.869 743.999C390.038 743.714 390.265 743.487 390.55 743.317C390.839 743.145 391.155 743.059 391.5 743.059C391.848 743.059 392.163 743.145 392.445 743.317C392.73 743.487 392.957 743.714 393.126 743.999C393.298 744.28 393.384 744.595 393.384 744.943C393.384 745.288 393.298 745.603 393.126 745.888C392.957 746.173 392.73 746.402 392.445 746.574C392.163 746.743 391.848 746.827 391.5 746.827ZM411.327 742H410.392C410.322 741.652 410.196 741.33 410.014 741.036C409.835 740.737 409.61 740.477 409.338 740.255C409.066 740.033 408.758 739.861 408.413 739.738C408.069 739.615 407.696 739.554 407.295 739.554C406.652 739.554 406.065 739.721 405.535 740.056C405.008 740.391 404.585 740.883 404.267 741.533C403.952 742.179 403.795 742.971 403.795 743.909C403.795 744.854 403.952 745.649 404.267 746.295C404.585 746.942 405.008 747.432 405.535 747.767C406.065 748.098 406.652 748.264 407.295 748.264C407.696 748.264 408.069 748.203 408.413 748.08C408.758 747.958 409.066 747.787 409.338 747.568C409.61 747.346 409.835 747.086 410.014 746.788C410.196 746.489 410.322 746.166 410.392 745.818H411.327C411.244 746.286 411.088 746.721 410.859 747.126C410.634 747.527 410.346 747.878 409.994 748.18C409.646 748.481 409.245 748.717 408.791 748.886C408.337 749.055 407.838 749.139 407.295 749.139C406.44 749.139 405.681 748.925 405.018 748.498C404.355 748.067 403.835 747.46 403.457 746.678C403.082 745.896 402.895 744.973 402.895 743.909C402.895 742.845 403.082 741.922 403.457 741.14C403.835 740.358 404.355 739.753 405.018 739.325C405.681 738.894 406.44 738.679 407.295 738.679C407.838 738.679 408.337 738.763 408.791 738.933C409.245 739.098 409.646 739.334 409.994 739.638C410.346 739.94 410.634 740.291 410.859 740.692C411.088 741.094 411.244 741.529 411.327 742ZM416.575 749.159C415.915 749.159 415.332 748.992 414.825 748.657C414.321 748.322 413.926 747.86 413.641 747.27C413.356 746.677 413.214 745.992 413.214 745.217C413.214 744.434 413.356 743.747 413.641 743.153C413.926 742.557 414.321 742.093 414.825 741.761C415.332 741.427 415.915 741.259 416.575 741.259C417.234 741.259 417.816 741.427 418.32 741.761C418.823 742.096 419.218 742.56 419.503 743.153C419.791 743.747 419.935 744.434 419.935 745.217C419.935 745.992 419.793 746.677 419.508 747.27C419.223 747.86 418.827 748.322 418.32 748.657C417.816 748.992 417.234 749.159 416.575 749.159ZM416.575 748.349C417.105 748.349 417.554 748.206 417.922 747.921C418.29 747.636 418.568 747.257 418.757 746.783C418.949 746.309 419.045 745.787 419.045 745.217C419.045 744.647 418.949 744.123 418.757 743.646C418.568 743.168 418.29 742.786 417.922 742.497C417.554 742.209 417.105 742.065 416.575 742.065C416.048 742.065 415.598 742.209 415.227 742.497C414.859 742.786 414.579 743.168 414.387 743.646C414.198 744.123 414.104 744.647 414.104 745.217C414.104 745.787 414.198 746.309 414.387 746.783C414.579 747.257 414.859 747.636 415.227 747.921C415.595 748.206 416.044 748.349 416.575 748.349ZM423.043 744.227V749H422.158V741.364H423.018V742.562H423.098C423.277 742.171 423.555 741.857 423.933 741.622C424.314 741.384 424.785 741.264 425.345 741.264C425.859 741.264 426.309 741.372 426.697 741.587C427.088 741.799 427.391 742.113 427.607 742.527C427.826 742.941 427.935 743.45 427.935 744.053V749H427.05V744.108C427.05 743.482 426.874 742.986 426.523 742.621C426.175 742.257 425.708 742.075 425.121 742.075C424.72 742.075 424.364 742.161 424.052 742.333C423.741 742.505 423.494 742.754 423.311 743.079C423.132 743.4 423.043 743.783 423.043 744.227ZM433.553 741.364V742.134H429.909V741.364H433.553ZM431.048 739.534H431.937V747.006C431.937 747.325 431.992 747.575 432.102 747.757C432.211 747.936 432.353 748.064 432.529 748.14C432.705 748.213 432.892 748.249 433.091 748.249C433.207 748.249 433.306 748.243 433.389 748.229C433.472 748.213 433.545 748.196 433.608 748.18L433.797 748.98C433.711 749.013 433.605 749.043 433.479 749.07C433.353 749.099 433.197 749.114 433.011 749.114C432.687 749.114 432.373 749.043 432.072 748.901C431.773 748.758 431.528 748.546 431.336 748.264C431.144 747.982 431.048 747.633 431.048 747.215V739.534ZM435.843 749V741.364H436.703V742.537H436.768C436.92 742.152 437.185 741.843 437.563 741.607C437.944 741.369 438.375 741.249 438.856 741.249C438.929 741.249 439.01 741.251 439.099 741.254C439.189 741.258 439.263 741.261 439.323 741.264V742.164C439.283 742.157 439.214 742.147 439.114 742.134C439.015 742.121 438.907 742.114 438.791 742.114C438.393 742.114 438.039 742.199 437.727 742.368C437.419 742.534 437.175 742.764 436.996 743.059C436.817 743.354 436.728 743.69 436.728 744.068V749H435.843ZM441.123 749V741.364H442.013V749H441.123ZM441.576 740.051C441.393 740.051 441.238 739.99 441.108 739.867C440.979 739.741 440.914 739.59 440.914 739.415C440.914 739.239 440.979 739.09 441.108 738.967C441.238 738.841 441.393 738.778 441.576 738.778C441.758 738.778 441.914 738.841 442.043 738.967C442.172 739.09 442.237 739.239 442.237 739.415C442.237 739.59 442.172 739.741 442.043 739.867C441.914 739.99 441.758 740.051 441.576 740.051ZM444.817 749V738.818H445.707V742.82H445.787C445.886 742.592 446.029 742.356 446.214 742.114C446.403 741.872 446.65 741.67 446.955 741.508C447.263 741.342 447.651 741.259 448.119 741.259C448.745 741.259 449.295 741.425 449.769 741.756C450.243 742.085 450.613 742.545 450.878 743.138C451.143 743.728 451.276 744.416 451.276 745.202C451.276 745.991 451.143 746.682 450.878 747.275C450.616 747.868 450.248 748.33 449.774 748.662C449.303 748.993 448.757 749.159 448.133 749.159C447.669 749.159 447.282 749.076 446.97 748.911C446.662 748.745 446.413 748.541 446.224 748.299C446.035 748.054 445.89 747.815 445.787 747.583H445.678V749H444.817ZM445.692 745.187C445.692 745.803 445.784 746.35 445.966 746.827C446.151 747.301 446.417 747.674 446.761 747.946C447.109 748.214 447.53 748.349 448.024 748.349C448.531 748.349 448.96 748.21 449.312 747.931C449.663 747.649 449.93 747.27 450.112 746.793C450.294 746.315 450.386 745.78 450.386 745.187C450.386 744.6 450.294 744.071 450.112 743.601C449.933 743.13 449.668 742.757 449.317 742.482C448.965 742.204 448.535 742.065 448.024 742.065C447.527 742.065 447.104 742.199 446.756 742.467C446.412 742.732 446.148 743.1 445.966 743.571C445.784 744.038 445.692 744.577 445.692 745.187ZM458.352 746.082V741.364H459.237V749H458.352V747.732H458.282C458.103 748.123 457.82 748.45 457.432 748.712C457.044 748.97 456.57 749.099 456.01 749.099C455.523 749.099 455.09 748.993 454.712 748.781C454.335 748.566 454.038 748.251 453.823 747.837C453.607 747.422 453.499 746.914 453.499 746.31V741.364H454.384V746.256C454.384 746.852 454.56 747.333 454.911 747.697C455.263 748.059 455.713 748.239 456.264 748.239C456.608 748.239 456.94 748.156 457.258 747.991C457.576 747.825 457.838 747.583 458.043 747.265C458.249 746.943 458.352 746.549 458.352 746.082ZM464.867 741.364V742.134H461.223V741.364H464.867ZM462.362 739.534H463.252V747.006C463.252 747.325 463.306 747.575 463.416 747.757C463.525 747.936 463.667 748.064 463.843 748.14C464.019 748.213 464.206 748.249 464.405 748.249C464.521 748.249 464.62 748.243 464.703 748.229C464.786 748.213 464.859 748.196 464.922 748.18L465.111 748.98C465.025 749.013 464.919 749.043 464.793 749.07C464.667 749.099 464.511 749.114 464.325 749.114C464.001 749.114 463.687 749.043 463.386 748.901C463.087 748.758 462.842 748.546 462.65 748.264C462.458 747.982 462.362 747.633 462.362 747.215V739.534ZM470.162 749.159C469.45 749.159 468.833 748.993 468.313 748.662C467.793 748.327 467.39 747.865 467.105 747.275C466.823 746.682 466.682 745.999 466.682 745.227C466.682 744.458 466.823 743.775 467.105 743.178C467.39 742.578 467.783 742.109 468.283 741.771C468.787 741.43 469.369 741.259 470.028 741.259C470.442 741.259 470.842 741.335 471.226 741.488C471.611 741.637 471.955 741.867 472.26 742.179C472.569 742.487 472.812 742.877 472.991 743.347C473.17 743.815 473.26 744.368 473.26 745.008V745.445H467.294V744.665H472.355C472.355 744.174 472.255 743.733 472.057 743.342C471.861 742.948 471.588 742.636 471.236 742.408C470.888 742.179 470.486 742.065 470.028 742.065C469.544 742.065 469.118 742.194 468.75 742.452C468.383 742.711 468.094 743.052 467.885 743.477C467.68 743.901 467.576 744.365 467.572 744.869V745.336C467.572 745.942 467.677 746.473 467.885 746.927C468.098 747.378 468.397 747.727 468.785 747.976C469.173 748.224 469.632 748.349 470.162 748.349C470.524 748.349 470.84 748.292 471.112 748.18C471.387 748.067 471.617 747.916 471.803 747.727C471.992 747.535 472.134 747.325 472.231 747.096L473.071 747.369C472.955 747.691 472.764 747.987 472.499 748.259C472.237 748.531 471.909 748.75 471.515 748.915C471.124 749.078 470.673 749.159 470.162 749.159ZM479.275 739.653V738.818H486.658V739.653H483.431V749H482.501V739.653H479.275ZM490.707 749.159C490.048 749.159 489.464 748.992 488.957 748.657C488.454 748.322 488.059 747.86 487.774 747.27C487.489 746.677 487.347 745.992 487.347 745.217C487.347 744.434 487.489 743.747 487.774 743.153C488.059 742.557 488.454 742.093 488.957 741.761C489.464 741.427 490.048 741.259 490.707 741.259C491.367 741.259 491.949 741.427 492.452 741.761C492.956 742.096 493.351 742.56 493.636 743.153C493.924 743.747 494.068 744.434 494.068 745.217C494.068 745.992 493.926 746.677 493.641 747.27C493.356 747.86 492.959 748.322 492.452 748.657C491.949 748.992 491.367 749.159 490.707 749.159ZM490.707 748.349C491.238 748.349 491.687 748.206 492.055 747.921C492.423 747.636 492.701 747.257 492.89 746.783C493.082 746.309 493.178 745.787 493.178 745.217C493.178 744.647 493.082 744.123 492.89 743.646C492.701 743.168 492.423 742.786 492.055 742.497C491.687 742.209 491.238 742.065 490.707 742.065C490.18 742.065 489.731 742.209 489.36 742.497C488.992 742.786 488.712 743.168 488.52 743.646C488.331 744.123 488.236 744.647 488.236 745.217C488.236 745.787 488.331 746.309 488.52 746.783C488.712 747.257 488.992 747.636 489.36 747.921C489.728 748.206 490.177 748.349 490.707 748.349ZM503.675 749H500.692V738.818H503.854C504.825 738.818 505.655 739.02 506.345 739.425C507.038 739.829 507.568 740.409 507.936 741.165C508.304 741.92 508.488 742.827 508.488 743.884C508.488 744.951 508.299 745.868 507.921 746.634C507.546 747.396 506.999 747.981 506.28 748.388C505.564 748.796 504.696 749 503.675 749ZM501.622 748.165H503.62C504.495 748.165 505.228 747.992 505.818 747.648C506.408 747.303 506.85 746.811 507.145 746.171C507.44 745.531 507.588 744.769 507.588 743.884C507.584 743.006 507.439 742.25 507.15 741.617C506.865 740.984 506.441 740.499 505.878 740.161C505.317 739.822 504.625 739.653 503.799 739.653H501.622V748.165ZM512.97 749.174C512.509 749.174 512.088 749.085 511.707 748.906C511.326 748.723 511.023 748.461 510.797 748.12C510.572 747.775 510.459 747.358 510.459 746.867C510.459 746.489 510.53 746.171 510.673 745.913C510.816 745.654 511.018 745.442 511.28 745.276C511.541 745.111 511.851 744.98 512.209 744.884C512.567 744.787 512.962 744.713 513.392 744.66C513.82 744.607 514.181 744.56 514.476 744.521C514.775 744.481 515.002 744.418 515.157 744.332C515.313 744.246 515.391 744.106 515.391 743.914V743.735C515.391 743.215 515.235 742.805 514.924 742.507C514.615 742.205 514.171 742.055 513.591 742.055C513.041 742.055 512.592 742.176 512.244 742.418C511.899 742.66 511.657 742.945 511.518 743.273L510.678 742.969C510.85 742.552 511.089 742.219 511.394 741.97C511.699 741.718 512.04 741.538 512.418 741.428C512.796 741.316 513.179 741.259 513.566 741.259C513.858 741.259 514.161 741.297 514.476 741.374C514.794 741.45 515.089 741.582 515.361 741.771C515.633 741.957 515.853 742.217 516.022 742.552C516.191 742.883 516.276 743.304 516.276 743.815V749H515.391V747.792H515.336C515.23 748.017 515.073 748.236 514.864 748.448C514.655 748.66 514.393 748.834 514.079 748.97C513.764 749.106 513.394 749.174 512.97 749.174ZM513.089 748.364C513.56 748.364 513.968 748.259 514.312 748.05C514.657 747.842 514.922 747.565 515.108 747.22C515.297 746.872 515.391 746.489 515.391 746.072V744.968C515.325 745.031 515.214 745.087 515.058 745.137C514.905 745.187 514.728 745.232 514.526 745.271C514.327 745.308 514.128 745.339 513.929 745.366C513.731 745.392 513.552 745.415 513.392 745.435C512.962 745.488 512.594 745.571 512.289 745.684C511.984 745.797 511.75 745.952 511.588 746.151C511.425 746.347 511.344 746.599 511.344 746.907C511.344 747.371 511.51 747.731 511.841 747.986C512.173 748.238 512.589 748.364 513.089 748.364ZM521.918 741.364V742.134H518.274V741.364H521.918ZM519.412 739.534H520.302V747.006C520.302 747.325 520.357 747.575 520.466 747.757C520.576 747.936 520.718 748.064 520.894 748.14C521.069 748.213 521.257 748.249 521.455 748.249C521.571 748.249 521.671 748.243 521.754 748.229C521.837 748.213 521.91 748.196 521.973 748.18L522.161 748.98C522.075 749.013 521.969 749.043 521.843 749.07C521.717 749.099 521.562 749.114 521.376 749.114C521.051 749.114 520.738 749.043 520.436 748.901C520.138 748.758 519.893 748.546 519.701 748.264C519.508 747.982 519.412 747.633 519.412 747.215V739.534ZM526.34 749.174C525.88 749.174 525.459 749.085 525.078 748.906C524.696 748.723 524.393 748.461 524.168 748.12C523.942 747.775 523.83 747.358 523.83 746.867C523.83 746.489 523.901 746.171 524.044 745.913C524.186 745.654 524.388 745.442 524.65 745.276C524.912 745.111 525.222 744.98 525.58 744.884C525.938 744.787 526.332 744.713 526.763 744.66C527.191 744.607 527.552 744.56 527.847 744.521C528.145 744.481 528.372 744.418 528.528 744.332C528.684 744.246 528.762 744.106 528.762 743.914V743.735C528.762 743.215 528.606 742.805 528.294 742.507C527.986 742.205 527.542 742.055 526.962 742.055C526.412 742.055 525.963 742.176 525.615 742.418C525.27 742.66 525.028 742.945 524.889 743.273L524.049 742.969C524.221 742.552 524.46 742.219 524.764 741.97C525.069 741.718 525.411 741.538 525.789 741.428C526.166 741.316 526.549 741.259 526.937 741.259C527.229 741.259 527.532 741.297 527.847 741.374C528.165 741.45 528.46 741.582 528.732 741.771C529.004 741.957 529.224 742.217 529.393 742.552C529.562 742.883 529.647 743.304 529.647 743.815V749H528.762V747.792H528.707C528.601 748.017 528.443 748.236 528.235 748.448C528.026 748.66 527.764 748.834 527.449 748.97C527.134 749.106 526.765 749.174 526.34 749.174ZM526.46 748.364C526.93 748.364 527.338 748.259 527.683 748.05C528.027 747.842 528.293 747.565 528.478 747.22C528.667 746.872 528.762 746.489 528.762 746.072V744.968C528.695 745.031 528.584 745.087 528.428 745.137C528.276 745.187 528.099 745.232 527.897 745.271C527.698 745.308 527.499 745.339 527.3 745.366C527.101 745.392 526.922 745.415 526.763 745.435C526.332 745.488 525.964 745.571 525.659 745.684C525.354 745.797 525.121 745.952 524.958 746.151C524.796 746.347 524.715 746.599 524.715 746.907C524.715 747.371 524.88 747.731 525.212 747.986C525.543 748.238 525.959 748.364 526.46 748.364ZM537.411 743.039L536.601 743.268C536.521 743.039 536.409 742.832 536.263 742.646C536.117 742.461 535.926 742.313 535.691 742.204C535.459 742.094 535.171 742.04 534.826 742.04C534.309 742.04 533.885 742.162 533.553 742.408C533.222 742.653 533.056 742.969 533.056 743.357C533.056 743.685 533.169 743.952 533.394 744.158C533.623 744.36 533.974 744.521 534.448 744.64L535.602 744.923C536.241 745.079 536.72 745.326 537.038 745.664C537.36 746.002 537.521 746.426 537.521 746.937C537.521 747.368 537.401 747.75 537.163 748.085C536.924 748.42 536.591 748.683 536.163 748.876C535.739 749.065 535.247 749.159 534.687 749.159C533.941 749.159 533.326 748.992 532.842 748.657C532.358 748.319 532.049 747.832 531.913 747.195L532.763 746.987C532.872 747.441 533.086 747.784 533.404 748.016C533.726 748.248 534.148 748.364 534.672 748.364C535.259 748.364 535.728 748.233 536.079 747.971C536.43 747.706 536.606 747.374 536.606 746.977C536.606 746.668 536.503 746.41 536.298 746.201C536.092 745.989 535.781 745.833 535.363 745.734L534.115 745.435C533.452 745.276 532.962 745.024 532.644 744.68C532.325 744.335 532.166 743.907 532.166 743.397C532.166 742.976 532.281 742.607 532.509 742.288C532.738 741.967 533.053 741.715 533.454 741.533C533.855 741.35 534.312 741.259 534.826 741.259C535.525 741.259 536.084 741.418 536.501 741.737C536.922 742.051 537.226 742.486 537.411 743.039ZM542.826 749.159C542.113 749.159 541.497 748.993 540.976 748.662C540.456 748.327 540.053 747.865 539.768 747.275C539.486 746.682 539.346 745.999 539.346 745.227C539.346 744.458 539.486 743.775 539.768 743.178C540.053 742.578 540.446 742.109 540.946 741.771C541.45 741.43 542.032 741.259 542.691 741.259C543.106 741.259 543.505 741.335 543.89 741.488C544.274 741.637 544.619 741.867 544.924 742.179C545.232 742.487 545.476 742.877 545.655 743.347C545.834 743.815 545.923 744.368 545.923 745.008V745.445H539.957V744.665H545.018C545.018 744.174 544.919 743.733 544.72 743.342C544.524 742.948 544.251 742.636 543.9 742.408C543.552 742.179 543.149 742.065 542.691 742.065C542.208 742.065 541.782 742.194 541.414 742.452C541.046 742.711 540.758 743.052 540.549 743.477C540.343 743.901 540.239 744.365 540.235 744.869V745.336C540.235 745.942 540.34 746.473 540.549 746.927C540.761 747.378 541.061 747.727 541.449 747.976C541.836 748.224 542.295 748.349 542.826 748.349C543.187 748.349 543.503 748.292 543.775 748.18C544.05 748.067 544.281 747.916 544.466 747.727C544.655 747.535 544.798 747.325 544.894 747.096L545.734 747.369C545.618 747.691 545.427 747.987 545.162 748.259C544.9 748.531 544.572 748.75 544.178 748.915C543.787 749.078 543.336 749.159 542.826 749.159ZM551.161 741.364V742.134H547.517V741.364H551.161ZM548.655 739.534H549.545V747.006C549.545 747.325 549.6 747.575 549.709 747.757C549.819 747.936 549.961 748.064 550.137 748.14C550.312 748.213 550.5 748.249 550.699 748.249C550.815 748.249 550.914 748.243 550.997 748.229C551.08 748.213 551.153 748.196 551.216 748.18L551.405 748.98C551.318 749.013 551.212 749.043 551.086 749.07C550.96 749.099 550.805 749.114 550.619 749.114C550.294 749.114 549.981 749.043 549.679 748.901C549.381 748.758 549.136 748.546 548.944 748.264C548.751 747.982 548.655 747.633 548.655 747.215V739.534ZM411.327 759H410.392C410.322 758.652 410.196 758.33 410.014 758.036C409.835 757.737 409.61 757.477 409.338 757.255C409.066 757.033 408.758 756.861 408.413 756.738C408.069 756.615 407.696 756.554 407.295 756.554C406.652 756.554 406.065 756.721 405.535 757.056C405.008 757.391 404.585 757.883 404.267 758.533C403.952 759.179 403.795 759.971 403.795 760.909C403.795 761.854 403.952 762.649 404.267 763.295C404.585 763.942 405.008 764.432 405.535 764.767C406.065 765.098 406.652 765.264 407.295 765.264C407.696 765.264 408.069 765.203 408.413 765.08C408.758 764.958 409.066 764.787 409.338 764.568C409.61 764.346 409.835 764.086 410.014 763.788C410.196 763.489 410.322 763.166 410.392 762.818H411.327C411.244 763.286 411.088 763.721 410.859 764.126C410.634 764.527 410.346 764.878 409.994 765.18C409.646 765.481 409.245 765.717 408.791 765.886C408.337 766.055 407.838 766.139 407.295 766.139C406.44 766.139 405.681 765.925 405.018 765.498C404.355 765.067 403.835 764.46 403.457 763.678C403.082 762.896 402.895 761.973 402.895 760.909C402.895 759.845 403.082 758.922 403.457 758.14C403.835 757.358 404.355 756.753 405.018 756.325C405.681 755.894 406.44 755.679 407.295 755.679C407.838 755.679 408.337 755.763 408.791 755.933C409.245 756.098 409.646 756.334 409.994 756.638C410.346 756.94 410.634 757.291 410.859 757.692C411.088 758.094 411.244 758.529 411.327 759ZM413.607 766V758.364H414.467V759.537H414.531C414.684 759.152 414.949 758.843 415.327 758.607C415.708 758.369 416.139 758.249 416.619 758.249C416.692 758.249 416.773 758.251 416.863 758.254C416.952 758.258 417.027 758.261 417.087 758.264V759.164C417.047 759.157 416.977 759.147 416.878 759.134C416.778 759.121 416.671 759.114 416.555 759.114C416.157 759.114 415.802 759.199 415.491 759.368C415.183 759.534 414.939 759.764 414.76 760.059C414.581 760.354 414.491 760.69 414.491 761.068V766H413.607ZM421.732 766.159C421.019 766.159 420.403 765.993 419.882 765.662C419.362 765.327 418.959 764.865 418.674 764.275C418.392 763.682 418.252 762.999 418.252 762.227C418.252 761.458 418.392 760.775 418.674 760.178C418.959 759.578 419.352 759.109 419.852 758.771C420.356 758.43 420.938 758.259 421.597 758.259C422.012 758.259 422.411 758.335 422.796 758.488C423.18 758.637 423.525 758.867 423.83 759.179C424.138 759.487 424.382 759.877 424.561 760.347C424.74 760.815 424.829 761.368 424.829 762.008V762.445H418.863V761.665H423.924C423.924 761.174 423.825 760.733 423.626 760.342C423.43 759.948 423.157 759.636 422.806 759.408C422.458 759.179 422.055 759.065 421.597 759.065C421.114 759.065 420.688 759.194 420.32 759.452C419.952 759.711 419.664 760.052 419.455 760.477C419.249 760.901 419.145 761.365 419.141 761.869V762.336C419.141 762.942 419.246 763.473 419.455 763.927C419.667 764.378 419.967 764.727 420.355 764.976C420.742 765.224 421.201 765.349 421.732 765.349C422.093 765.349 422.409 765.292 422.681 765.18C422.956 765.067 423.187 764.916 423.372 764.727C423.561 764.535 423.704 764.325 423.8 764.096L424.64 764.369C424.524 764.691 424.333 764.987 424.068 765.259C423.807 765.531 423.478 765.75 423.084 765.915C422.693 766.078 422.242 766.159 421.732 766.159ZM429.192 766.174C428.731 766.174 428.31 766.085 427.929 765.906C427.548 765.723 427.245 765.461 427.019 765.12C426.794 764.775 426.681 764.358 426.681 763.867C426.681 763.489 426.753 763.171 426.895 762.913C427.038 762.654 427.24 762.442 427.502 762.276C427.763 762.111 428.073 761.98 428.431 761.884C428.789 761.787 429.184 761.713 429.615 761.66C430.042 761.607 430.403 761.56 430.698 761.521C430.997 761.481 431.224 761.418 431.379 761.332C431.535 761.246 431.613 761.106 431.613 760.914V760.735C431.613 760.215 431.457 759.805 431.146 759.507C430.838 759.205 430.393 759.055 429.813 759.055C429.263 759.055 428.814 759.176 428.466 759.418C428.121 759.66 427.879 759.945 427.74 760.273L426.9 759.969C427.072 759.552 427.311 759.219 427.616 758.97C427.921 758.718 428.262 758.538 428.64 758.428C429.018 758.316 429.401 758.259 429.789 758.259C430.08 758.259 430.383 758.297 430.698 758.374C431.016 758.45 431.311 758.582 431.583 758.771C431.855 758.957 432.075 759.217 432.244 759.552C432.414 759.883 432.498 760.304 432.498 760.815V766H431.613V764.792H431.558C431.452 765.017 431.295 765.236 431.086 765.448C430.877 765.66 430.615 765.834 430.301 765.97C429.986 766.106 429.616 766.174 429.192 766.174ZM429.311 765.364C429.782 765.364 430.19 765.259 430.534 765.05C430.879 764.842 431.144 764.565 431.33 764.22C431.519 763.872 431.613 763.489 431.613 763.072V761.968C431.547 762.031 431.436 762.087 431.28 762.137C431.128 762.187 430.95 762.232 430.748 762.271C430.549 762.308 430.35 762.339 430.151 762.366C429.953 762.392 429.774 762.415 429.615 762.435C429.184 762.488 428.816 762.571 428.511 762.684C428.206 762.797 427.972 762.952 427.81 763.151C427.647 763.347 427.566 763.599 427.566 763.907C427.566 764.371 427.732 764.731 428.063 764.986C428.395 765.238 428.811 765.364 429.311 765.364ZM438.14 758.364V759.134H434.496V758.364H438.14ZM435.634 756.534H436.524V764.006C436.524 764.325 436.579 764.575 436.688 764.757C436.798 764.936 436.94 765.064 437.116 765.14C437.291 765.213 437.479 765.249 437.678 765.249C437.794 765.249 437.893 765.243 437.976 765.229C438.059 765.213 438.132 765.196 438.195 765.18L438.383 765.98C438.297 766.013 438.191 766.043 438.065 766.07C437.939 766.099 437.784 766.114 437.598 766.114C437.273 766.114 436.96 766.043 436.658 765.901C436.36 765.758 436.115 765.546 435.923 765.264C435.73 764.982 435.634 764.633 435.634 764.215V756.534ZM440.44 766V758.364H441.33V766H440.44ZM440.892 757.051C440.71 757.051 440.554 756.99 440.425 756.867C440.295 756.741 440.231 756.59 440.231 756.415C440.231 756.239 440.295 756.09 440.425 755.967C440.554 755.841 440.71 755.778 440.892 755.778C441.074 755.778 441.23 755.841 441.359 755.967C441.489 756.09 441.553 756.239 441.553 756.415C441.553 756.59 441.489 756.741 441.359 756.867C441.23 756.99 441.074 757.051 440.892 757.051ZM446.918 766.159C446.258 766.159 445.675 765.992 445.168 765.657C444.664 765.322 444.27 764.86 443.985 764.27C443.7 763.677 443.557 762.992 443.557 762.217C443.557 761.434 443.7 760.747 443.985 760.153C444.27 759.557 444.664 759.093 445.168 758.761C445.675 758.427 446.258 758.259 446.918 758.259C447.577 758.259 448.159 758.427 448.663 758.761C449.167 759.096 449.561 759.56 449.846 760.153C450.135 760.747 450.279 761.434 450.279 762.217C450.279 762.992 450.136 763.677 449.851 764.27C449.566 764.86 449.17 765.322 448.663 765.657C448.159 765.992 447.577 766.159 446.918 766.159ZM446.918 765.349C447.448 765.349 447.897 765.206 448.265 764.921C448.633 764.636 448.912 764.257 449.1 763.783C449.293 763.309 449.389 762.787 449.389 762.217C449.389 761.647 449.293 761.123 449.1 760.646C448.912 760.168 448.633 759.786 448.265 759.497C447.897 759.209 447.448 759.065 446.918 759.065C446.391 759.065 445.942 759.209 445.571 759.497C445.203 759.786 444.923 760.168 444.73 760.646C444.542 761.123 444.447 761.647 444.447 762.217C444.447 762.787 444.542 763.309 444.73 763.783C444.923 764.257 445.203 764.636 445.571 764.921C445.939 765.206 446.388 765.349 446.918 765.349ZM453.386 761.227V766H452.501V758.364H453.361V759.562H453.441C453.62 759.171 453.898 758.857 454.276 758.622C454.657 758.384 455.128 758.264 455.688 758.264C456.202 758.264 456.653 758.372 457.04 758.587C457.432 758.799 457.735 759.113 457.95 759.527C458.169 759.941 458.278 760.45 458.278 761.053V766H457.393V761.108C457.393 760.482 457.218 759.986 456.866 759.621C456.518 759.257 456.051 759.075 455.464 759.075C455.063 759.075 454.707 759.161 454.396 759.333C454.084 759.505 453.837 759.754 453.655 760.079C453.476 760.4 453.386 760.783 453.386 761.227Z" fill="white"></path><path d="M392.963 595C391.882 595 390.883 594.875 389.968 594.625C389.069 594.359 388.312 593.993 387.697 593.527L388.57 591.431C389.203 591.863 389.901 592.196 390.667 592.429C391.432 592.662 392.206 592.778 392.988 592.778C393.82 592.778 394.436 592.637 394.835 592.354C395.251 592.071 395.459 591.688 395.459 591.206C395.459 590.823 395.326 590.524 395.06 590.307C394.81 590.074 394.403 589.9 393.837 589.783L391.341 589.309C390.276 589.076 389.46 588.677 388.895 588.111C388.346 587.545 388.071 586.804 388.071 585.889C388.071 585.107 388.279 584.417 388.695 583.817C389.128 583.218 389.735 582.752 390.517 582.42C391.316 582.07 392.248 581.896 393.313 581.896C394.245 581.896 395.118 582.02 395.934 582.27C396.766 582.52 397.465 582.894 398.03 583.393L397.132 585.415C396.616 584.999 396.025 584.674 395.359 584.442C394.694 584.209 394.045 584.092 393.413 584.092C392.547 584.092 391.915 584.25 391.516 584.566C391.116 584.866 390.916 585.257 390.916 585.739C390.916 586.106 391.033 586.413 391.266 586.663C391.516 586.896 391.898 587.071 392.414 587.187L394.91 587.661C396.025 587.878 396.865 588.261 397.431 588.81C398.014 589.342 398.305 590.074 398.305 591.006C398.305 591.838 398.08 592.554 397.631 593.153C397.182 593.752 396.558 594.209 395.759 594.526C394.96 594.842 394.028 595 392.963 595Z" fill="white" fill-opacity="0.77"></path><path d="M380.886 595C378.773 595 377.117 594.417 375.919 593.253C374.721 592.088 374.122 590.49 374.122 588.46C374.122 587.146 374.38 585.997 374.895 585.016C375.411 584.034 376.127 583.268 377.042 582.719C377.974 582.17 379.055 581.896 380.287 581.896C381.502 581.896 382.517 582.153 383.332 582.669C384.147 583.185 384.763 583.909 385.179 584.841C385.612 585.773 385.828 586.863 385.828 588.111V588.934H376.643V587.287H383.607L383.182 587.636C383.182 586.472 382.933 585.581 382.434 584.966C381.951 584.35 381.244 584.042 380.312 584.042C379.28 584.042 378.481 584.408 377.916 585.14C377.366 585.873 377.092 586.896 377.092 588.211V588.535C377.092 589.9 377.425 590.923 378.09 591.605C378.773 592.271 379.729 592.604 380.961 592.604C381.676 592.604 382.342 592.512 382.958 592.329C383.59 592.129 384.189 591.813 384.755 591.381L385.678 593.477C385.079 593.96 384.364 594.334 383.532 594.601C382.7 594.867 381.818 595 380.886 595Z" fill="white" fill-opacity="0.77"></path><path d="M365.166 594.75V585.365C365.166 584.833 365.15 584.292 365.116 583.743C365.1 583.193 365.058 582.661 364.992 582.145H368.012L368.361 585.59H367.862C368.029 584.758 368.303 584.067 368.686 583.518C369.085 582.969 369.568 582.561 370.134 582.295C370.699 582.029 371.315 581.896 371.981 581.896C372.28 581.896 372.522 581.912 372.705 581.945C372.888 581.962 373.071 582.004 373.254 582.07L373.229 584.816C372.913 584.683 372.638 584.6 372.405 584.566C372.189 584.533 371.914 584.516 371.581 584.516C370.866 584.516 370.258 584.666 369.759 584.966C369.277 585.265 368.911 585.681 368.661 586.214C368.428 586.746 368.311 587.354 368.311 588.036V594.75H365.166Z" fill="white" fill-opacity="0.77"></path><path d="M356.111 595C354.813 595 353.69 594.734 352.741 594.201C351.793 593.669 351.052 592.912 350.52 591.93C350.004 590.948 349.746 589.783 349.746 588.435C349.746 587.087 350.004 585.931 350.52 584.966C351.052 583.984 351.793 583.227 352.741 582.694C353.69 582.162 354.813 581.896 356.111 581.896C357.409 581.896 358.532 582.162 359.481 582.694C360.446 583.227 361.186 583.984 361.702 584.966C362.235 585.931 362.501 587.087 362.501 588.435C362.501 589.783 362.235 590.948 361.702 591.93C361.186 592.912 360.446 593.669 359.481 594.201C358.532 594.734 357.409 595 356.111 595ZM356.111 592.604C357.093 592.604 357.875 592.263 358.457 591.58C359.04 590.881 359.331 589.833 359.331 588.435C359.331 587.037 359.04 585.997 358.457 585.315C357.875 584.633 357.093 584.292 356.111 584.292C355.129 584.292 354.347 584.633 353.765 585.315C353.182 585.997 352.891 587.037 352.891 588.435C352.891 589.833 353.182 590.881 353.765 591.58C354.347 592.263 355.129 592.604 356.111 592.604Z" fill="white" fill-opacity="0.77"></path><path d="M346.475 595C344.978 595 343.846 594.609 343.081 593.827C342.315 593.045 341.932 591.872 341.932 590.307V584.491H339.511V582.145H341.932V578.925L345.053 578.126V582.145H348.422V584.491H345.053V590.108C345.053 590.973 345.219 591.58 345.552 591.93C345.885 592.279 346.342 592.454 346.925 592.454C347.241 592.454 347.507 592.429 347.723 592.379C347.956 592.329 348.181 592.263 348.397 592.179V594.65C348.114 594.767 347.798 594.85 347.449 594.9C347.116 594.967 346.791 595 346.475 595Z" fill="white" fill-opacity="0.77"></path><path d="M330.473 595C329.374 595 328.409 594.742 327.577 594.226C326.745 593.694 326.096 592.936 325.63 591.955C325.164 590.973 324.931 589.8 324.931 588.435C324.931 587.071 325.164 585.906 325.63 584.941C326.096 583.959 326.745 583.21 327.577 582.694C328.409 582.162 329.374 581.896 330.473 581.896C331.538 581.896 332.47 582.162 333.268 582.694C334.084 583.21 334.624 583.909 334.891 584.791H334.616L334.891 582.145H337.886C337.836 582.661 337.786 583.185 337.736 583.718C337.703 584.25 337.686 584.774 337.686 585.29V594.75H334.591L334.566 592.154H334.866C334.6 593.02 334.059 593.71 333.243 594.226C332.428 594.742 331.504 595 330.473 595ZM331.346 592.604C332.328 592.604 333.119 592.263 333.718 591.58C334.317 590.881 334.616 589.833 334.616 588.435C334.616 587.037 334.317 585.997 333.718 585.315C333.119 584.633 332.328 584.292 331.346 584.292C330.365 584.292 329.574 584.633 328.975 585.315C328.376 585.997 328.076 587.037 328.076 588.435C328.076 589.833 328.368 590.881 328.95 591.58C329.549 592.263 330.348 592.604 331.346 592.604Z" fill="white" fill-opacity="0.77"></path><path d="M321.539 595C320.041 595 318.91 594.609 318.144 593.827C317.379 593.045 316.996 591.872 316.996 590.307V584.491H314.575V582.145H316.996V578.925L320.116 578.126V582.145H323.486V584.491H320.116V590.108C320.116 590.973 320.283 591.58 320.615 591.93C320.948 592.279 321.406 592.454 321.988 592.454C322.304 592.454 322.571 592.429 322.787 592.379C323.02 592.329 323.245 592.263 323.461 592.179V594.65C323.178 594.767 322.862 594.85 322.512 594.9C322.18 594.967 321.855 595 321.539 595Z" fill="white" fill-opacity="0.77"></path><path d="M307.189 595C305.891 595 304.768 594.734 303.819 594.201C302.871 593.669 302.13 592.912 301.598 591.93C301.082 590.948 300.824 589.783 300.824 588.435C300.824 587.087 301.082 585.931 301.598 584.966C302.13 583.984 302.871 583.227 303.819 582.694C304.768 582.162 305.891 581.896 307.189 581.896C308.487 581.896 309.61 582.162 310.558 582.694C311.524 583.227 312.264 583.984 312.78 584.966C313.312 585.931 313.579 587.087 313.579 588.435C313.579 589.783 313.312 590.948 312.78 591.93C312.264 592.912 311.524 593.669 310.558 594.201C309.61 594.734 308.487 595 307.189 595ZM307.189 592.604C308.171 592.604 308.953 592.263 309.535 591.58C310.117 590.881 310.409 589.833 310.409 588.435C310.409 587.037 310.117 585.997 309.535 585.315C308.953 584.633 308.171 584.292 307.189 584.292C306.207 584.292 305.425 584.633 304.842 585.315C304.26 585.997 303.969 587.037 303.969 588.435C303.969 589.833 304.26 590.881 304.842 591.58C305.425 592.263 306.207 592.604 307.189 592.604Z" fill="white" fill-opacity="0.77"></path><path d="M286.458 594.75V585.29C286.458 584.774 286.441 584.25 286.408 583.718C286.375 583.185 286.325 582.661 286.258 582.145H289.278L289.528 584.641H289.228C289.628 583.759 290.219 583.085 291.001 582.619C291.783 582.137 292.69 581.896 293.721 581.896C295.202 581.896 296.317 582.312 297.066 583.144C297.815 583.976 298.189 585.274 298.189 587.037V594.75H295.069V587.187C295.069 586.172 294.87 585.448 294.47 585.016C294.087 584.566 293.505 584.342 292.723 584.342C291.758 584.342 290.992 584.641 290.427 585.24C289.861 585.839 289.578 586.638 289.578 587.636V594.75H286.458Z" fill="white" fill-opacity="0.77"></path><path d="M271.418 594.75V585.29C271.418 584.774 271.401 584.25 271.368 583.718C271.335 583.185 271.285 582.661 271.218 582.145H274.239L274.488 584.641H274.189C274.588 583.759 275.179 583.085 275.961 582.619C276.743 582.137 277.65 581.896 278.682 581.896C280.163 581.896 281.277 582.312 282.026 583.144C282.775 583.976 283.15 585.274 283.15 587.037V594.75H280.029V587.187C280.029 586.172 279.83 585.448 279.43 585.016C279.048 584.566 278.465 584.342 277.683 584.342C276.718 584.342 275.952 584.641 275.387 585.24C274.821 585.839 274.538 586.638 274.538 587.636V594.75H271.418Z" fill="white" fill-opacity="0.77"></path><path d="M251 594.75L258.962 577.153H261.658L269.721 594.75H266.451L264.304 589.808L265.602 590.682H255.044L256.392 589.808L254.245 594.75H251ZM260.285 580.597L256.766 588.934L256.117 588.161H264.504L263.98 588.934L260.385 580.597H260.285Z" fill="white" fill-opacity="0.77"></path><path d="M309.298 563.371V545H312.418V563.371H309.298Z" fill="white" fill-opacity="0.77"></path><path d="M298.687 563.621C297.588 563.621 296.623 563.363 295.791 562.847C294.959 562.314 294.31 561.557 293.844 560.575C293.378 559.594 293.145 558.42 293.145 557.056C293.145 555.691 293.378 554.526 293.844 553.561C294.31 552.58 294.959 551.831 295.791 551.315C296.623 550.782 297.588 550.516 298.687 550.516C299.752 550.516 300.683 550.782 301.482 551.315C302.298 551.831 302.838 552.53 303.105 553.412H302.83L303.105 550.766H306.1C306.05 551.282 306 551.806 305.95 552.338C305.917 552.871 305.9 553.395 305.9 553.911V563.371H302.805L302.78 560.775H303.08C302.813 561.64 302.273 562.331 301.457 562.847C300.642 563.363 299.718 563.621 298.687 563.621ZM299.56 561.224C300.542 561.224 301.332 560.883 301.931 560.201C302.531 559.502 302.83 558.454 302.83 557.056C302.83 555.658 302.531 554.618 301.931 553.936C301.332 553.253 300.542 552.912 299.56 552.912C298.578 552.912 297.788 553.253 297.189 553.936C296.59 554.618 296.29 555.658 296.29 557.056C296.29 558.454 296.582 559.502 297.164 560.201C297.763 560.883 298.562 561.224 299.56 561.224Z" fill="white" fill-opacity="0.77"></path><path d="M287.105 563.621C285.808 563.621 284.668 563.354 283.686 562.822C282.721 562.289 281.972 561.532 281.439 560.55C280.907 559.552 280.641 558.37 280.641 557.006C280.641 555.641 280.907 554.477 281.439 553.511C281.989 552.546 282.746 551.806 283.711 551.29C284.676 550.774 285.808 550.516 287.105 550.516C287.937 550.516 288.745 550.649 289.527 550.915C290.325 551.165 290.974 551.531 291.474 552.014L290.525 554.185C290.076 553.769 289.568 553.461 289.002 553.262C288.453 553.045 287.913 552.937 287.38 552.937C286.265 552.937 285.391 553.287 284.759 553.986C284.143 554.685 283.836 555.7 283.836 557.031C283.836 558.362 284.143 559.386 284.759 560.101C285.391 560.817 286.265 561.174 287.38 561.174C287.896 561.174 288.428 561.075 288.978 560.875C289.543 560.675 290.059 560.367 290.525 559.951L291.474 562.098C290.958 562.58 290.3 562.955 289.502 563.221C288.72 563.487 287.921 563.621 287.105 563.621Z" fill="white" fill-opacity="0.77"></path><path d="M272.234 563.621C270.936 563.621 269.813 563.354 268.864 562.822C267.916 562.289 267.175 561.532 266.643 560.55C266.127 559.569 265.869 558.404 265.869 557.056C265.869 555.708 266.127 554.551 266.643 553.586C267.175 552.604 267.916 551.847 268.864 551.315C269.813 550.782 270.936 550.516 272.234 550.516C273.532 550.516 274.655 550.782 275.604 551.315C276.569 551.847 277.309 552.604 277.825 553.586C278.358 554.551 278.624 555.708 278.624 557.056C278.624 558.404 278.358 559.569 277.825 560.55C277.309 561.532 276.569 562.289 275.604 562.822C274.655 563.354 273.532 563.621 272.234 563.621ZM272.234 561.224C273.216 561.224 273.998 560.883 274.58 560.201C275.163 559.502 275.454 558.454 275.454 557.056C275.454 555.658 275.163 554.618 274.58 553.936C273.998 553.253 273.216 552.912 272.234 552.912C271.252 552.912 270.47 553.253 269.888 553.936C269.305 554.618 269.014 555.658 269.014 557.056C269.014 558.454 269.305 559.502 269.888 560.201C270.47 560.883 271.252 561.224 272.234 561.224Z" fill="white" fill-opacity="0.77"></path><path d="M252.947 563.371V545.774H256.167V560.651H264.454V563.371H252.947Z" fill="white" fill-opacity="0.77"></path><path d="M225 538C225 532.477 230.156 528 236.515 528H403.485C409.844 528 415 532.477 415 538V602C415 607.523 409.844 612 403.485 612H236.515C230.156 612 225 607.523 225 602V538Z" fill="url(#paint1_linear_1266_629)" fill-opacity="0.14"></path><line x1="691" y1="388" x2="900.022" y2="388" stroke="#02C27D" stroke-width="2" stroke-dasharray="2 2"></line><path d="M805 542C805 536.477 810.156 532 816.515 532H983.485C989.844 532 995 536.477 995 542V606C995 611.523 989.844 616 983.485 616H816.515C810.156 616 805 611.523 805 606V542Z" fill="url(#paint2_linear_1266_629)" fill-opacity="0.14"></path><path d="M965.666 580.774C964.495 580.774 963.415 580.639 962.424 580.369C961.452 580.081 960.632 579.685 959.966 579.18L960.911 576.911C961.596 577.379 962.352 577.74 963.181 577.992C964.009 578.244 964.846 578.37 965.693 578.37C966.593 578.37 967.26 578.217 967.692 577.911C968.142 577.605 968.367 577.19 968.367 576.668C968.367 576.254 968.223 575.93 967.935 575.696C967.665 575.443 967.224 575.254 966.611 575.128L963.91 574.615C962.757 574.363 961.875 573.931 961.263 573.318C960.668 572.706 960.371 571.905 960.371 570.914C960.371 570.068 960.596 569.32 961.046 568.672C961.515 568.024 962.172 567.519 963.018 567.159C963.883 566.781 964.891 566.592 966.044 566.592C967.053 566.592 967.998 566.727 968.881 566.997C969.781 567.267 970.537 567.672 971.15 568.213L970.177 570.401C969.619 569.951 968.98 569.599 968.259 569.347C967.539 569.095 966.836 568.969 966.152 568.969C965.216 568.969 964.531 569.14 964.099 569.482C963.667 569.806 963.451 570.23 963.451 570.752C963.451 571.148 963.577 571.481 963.829 571.752C964.099 572.004 964.513 572.193 965.072 572.319L967.773 572.832C968.98 573.066 969.889 573.48 970.501 574.075C971.132 574.651 971.447 575.443 971.447 576.452C971.447 577.352 971.204 578.127 970.717 578.775C970.231 579.424 969.556 579.919 968.691 580.261C967.827 580.603 966.818 580.774 965.666 580.774Z" fill="white" fill-opacity="0.79"></path><path d="M952.595 580.774C950.308 580.774 948.516 580.144 947.219 578.883C945.922 577.623 945.274 575.894 945.274 573.697C945.274 572.274 945.553 571.031 946.111 569.969C946.67 568.906 947.444 568.078 948.435 567.483C949.443 566.889 950.614 566.592 951.946 566.592C953.261 566.592 954.36 566.871 955.242 567.429C956.125 567.988 956.791 568.771 957.241 569.779C957.709 570.788 957.944 571.968 957.944 573.318V574.21H948.002V572.427H955.539L955.08 572.805C955.08 571.544 954.81 570.581 954.27 569.915C953.747 569.248 952.982 568.915 951.973 568.915C950.857 568.915 949.992 569.311 949.38 570.104C948.786 570.896 948.489 572.004 948.489 573.426V573.778C948.489 575.254 948.849 576.362 949.569 577.1C950.308 577.821 951.343 578.181 952.676 578.181C953.45 578.181 954.171 578.082 954.837 577.884C955.521 577.668 956.17 577.325 956.782 576.857L957.782 579.126C957.133 579.649 956.359 580.054 955.458 580.342C954.558 580.63 953.603 580.774 952.595 580.774Z" fill="white" fill-opacity="0.79"></path><path d="M938.96 580.504V566.862H942.336V580.504H938.96ZM938.771 564.296V561H942.525V564.296H938.771Z" fill="white" fill-opacity="0.79"></path><path d="M922.683 580.504V570.266C922.683 569.707 922.665 569.14 922.629 568.564C922.593 567.988 922.539 567.42 922.467 566.862H925.735L926.005 569.563H925.681C926.113 568.609 926.753 567.879 927.599 567.375C928.446 566.853 929.427 566.592 930.544 566.592C932.147 566.592 933.353 567.042 934.164 567.943C934.974 568.843 935.379 570.248 935.379 572.157V580.504H932.003V572.319C932.003 571.22 931.786 570.437 931.354 569.969C930.94 569.482 930.31 569.239 929.463 569.239C928.419 569.239 927.59 569.563 926.978 570.212C926.366 570.86 926.059 571.725 926.059 572.805V580.504H922.683Z" fill="white" fill-opacity="0.79"></path><path d="M911.198 580.774C910.01 580.774 908.965 580.495 908.065 579.937C907.164 579.361 906.462 578.541 905.958 577.479C905.453 576.416 905.201 575.146 905.201 573.67C905.201 572.193 905.453 570.932 905.958 569.888C906.462 568.825 907.164 568.015 908.065 567.456C908.965 566.88 910.01 566.592 911.198 566.592C912.351 566.592 913.359 566.88 914.224 567.456C915.106 568.015 915.692 568.771 915.98 569.725H915.683L915.98 566.862H919.222C919.168 567.42 919.114 567.988 919.059 568.564C919.023 569.14 919.005 569.707 919.005 570.266V580.504H915.656L915.629 577.695H915.953C915.665 578.631 915.079 579.379 914.197 579.937C913.314 580.495 912.315 580.774 911.198 580.774ZM912.144 578.181C913.206 578.181 914.062 577.812 914.71 577.073C915.359 576.317 915.683 575.182 915.683 573.67C915.683 572.157 915.359 571.031 914.71 570.293C914.062 569.554 913.206 569.185 912.144 569.185C911.081 569.185 910.226 569.554 909.577 570.293C908.929 571.031 908.605 572.157 908.605 573.67C908.605 575.182 908.92 576.317 909.55 577.073C910.199 577.812 911.063 578.181 912.144 578.181Z" fill="white" fill-opacity="0.79"></path><path d="M889.179 586.339V570.266C889.179 569.707 889.161 569.14 889.124 568.564C889.088 567.988 889.034 567.42 888.962 566.862H892.231L892.528 569.725H892.231C892.501 568.771 893.069 568.015 893.933 567.456C894.815 566.88 895.833 566.592 896.986 566.592C898.192 566.592 899.246 566.88 900.146 567.456C901.047 568.015 901.749 568.825 902.253 569.888C902.758 570.932 903.01 572.193 903.01 573.67C903.01 575.146 902.758 576.416 902.253 577.479C901.749 578.541 901.047 579.361 900.146 579.937C899.246 580.495 898.192 580.774 896.986 580.774C895.851 580.774 894.852 580.495 893.987 579.937C893.123 579.379 892.546 578.631 892.258 577.695H892.555V586.339H889.179ZM896.04 578.181C897.121 578.181 897.985 577.812 898.633 577.073C899.282 576.317 899.606 575.182 899.606 573.67C899.606 572.157 899.282 571.031 898.633 570.293C897.985 569.554 897.121 569.185 896.04 569.185C894.978 569.185 894.122 569.554 893.474 570.293C892.825 571.031 892.501 572.157 892.501 573.67C892.501 575.182 892.825 576.317 893.474 577.073C894.122 577.812 894.978 578.181 896.04 578.181Z" fill="white" fill-opacity="0.79"></path><path d="M864.882 580.504V570.266C864.882 569.707 864.864 569.14 864.828 568.564C864.792 567.988 864.738 567.42 864.666 566.862H867.934L868.204 569.563H867.88C868.258 568.627 868.835 567.897 869.609 567.375C870.402 566.853 871.338 566.592 872.419 566.592C873.499 566.592 874.391 566.853 875.093 567.375C875.813 567.879 876.318 568.672 876.606 569.752H876.174C876.552 568.78 877.173 568.015 878.038 567.456C878.902 566.88 879.893 566.592 881.009 566.592C882.54 566.592 883.684 567.042 884.44 567.943C885.196 568.843 885.575 570.248 885.575 572.157V580.504H882.198V572.292C882.198 571.211 882.018 570.437 881.657 569.969C881.297 569.482 880.721 569.239 879.929 569.239C878.992 569.239 878.254 569.572 877.713 570.239C877.173 570.887 876.903 571.77 876.903 572.886V580.504H873.526V572.292C873.526 571.211 873.346 570.437 872.986 569.969C872.626 569.482 872.049 569.239 871.257 569.239C870.321 569.239 869.582 569.572 869.042 570.239C868.52 570.887 868.258 571.77 868.258 572.886V580.504H864.882Z" fill="white" fill-opacity="0.79"></path><path d="M855.054 580.774C853.649 580.774 852.434 580.486 851.407 579.91C850.38 579.334 849.579 578.514 849.003 577.452C848.444 576.389 848.165 575.128 848.165 573.67C848.165 572.211 848.444 570.959 849.003 569.915C849.579 568.852 850.38 568.033 851.407 567.456C852.434 566.88 853.649 566.592 855.054 566.592C856.459 566.592 857.674 566.88 858.701 567.456C859.745 568.033 860.547 568.852 861.105 569.915C861.681 570.959 861.97 572.211 861.97 573.67C861.97 575.128 861.681 576.389 861.105 577.452C860.547 578.514 859.745 579.334 858.701 579.91C857.674 580.486 856.459 580.774 855.054 580.774ZM855.054 578.181C856.116 578.181 856.963 577.812 857.593 577.073C858.224 576.317 858.539 575.182 858.539 573.67C858.539 572.157 858.224 571.031 857.593 570.293C856.963 569.554 856.116 569.185 855.054 569.185C853.991 569.185 853.145 569.554 852.515 570.293C851.884 571.031 851.569 572.157 851.569 573.67C851.569 575.182 851.884 576.317 852.515 577.073C853.145 577.812 853.991 578.181 855.054 578.181Z" fill="white" fill-opacity="0.79"></path><path d="M840.482 580.774C838.501 580.774 836.799 580.378 835.376 579.586C833.972 578.775 832.891 577.641 832.135 576.182C831.378 574.705 831 572.967 831 570.968C831 568.969 831.378 567.24 832.135 565.781C832.891 564.323 833.972 563.197 835.376 562.405C836.799 561.594 838.501 561.189 840.482 561.189C841.815 561.189 843.012 561.378 844.075 561.756C845.155 562.134 846.083 562.693 846.857 563.431L845.723 566.187C844.876 565.502 844.057 565.016 843.264 564.728C842.49 564.422 841.599 564.269 840.59 564.269C838.663 564.269 837.186 564.854 836.16 566.025C835.151 567.177 834.647 568.825 834.647 570.968C834.647 573.111 835.151 574.768 836.16 575.939C837.186 577.109 838.663 577.695 840.59 577.695C841.599 577.695 842.49 577.551 843.264 577.262C844.057 576.956 844.876 576.452 845.723 575.75L846.857 578.505C846.083 579.225 845.155 579.784 844.075 580.18C843.012 580.576 841.815 580.774 840.482 580.774Z" fill="white" fill-opacity="0.79"></path><g filter="url(#filter0_f_1266_629)"><ellipse cx="615" cy="603.949" rx="134.93" ry="145.464" transform="rotate(82.4157 615 603.949)" fill="url(#paint3_linear_1266_629)" fill-opacity="0.6"></ellipse><path d="M632.747 737.237C553.335 747.811 481.068 696.667 471.271 623.087C461.474 549.506 517.84 481.235 597.253 470.661C676.665 460.088 748.932 511.231 758.729 584.811C768.526 658.392 712.16 726.663 632.747 737.237Z" stroke="black" stroke-width="0.932623"></path></g><line x1="315" y1="388" x2="524.022" y2="388" stroke="#02C27D" stroke-width="2" stroke-dasharray="2 2"></line><line x1="316.508" y1="392.999" x2="316.508" y2="522.999" stroke="#02C27D" stroke-width="2" stroke-dasharray="2 2"></line><line x1="317" y1="618" x2="317" y2="737" stroke="#02C27D" stroke-width="2" stroke-dasharray="2 2"></line><line x1="901" y1="619" x2="901" y2="738" stroke="#02C27D" stroke-width="2" stroke-dasharray="2 2"></line><line x1="318" y1="739" x2="359" y2="739" stroke="#02C27D" stroke-width="2" stroke-dasharray="2 2"></line><line x1="859" y1="742" x2="900" y2="742" stroke="#02C27D" stroke-width="2" stroke-dasharray="2 2"></line><path d="M365 712.119C365 706.53 371.729 702 380.03 702H597.97C606.271 702 613 706.53 613 712.119V776.881C613 782.47 606.271 787 597.97 787H380.03C371.729 787 365 782.47 365 776.881V712.119Z" fill="url(#paint4_linear_1266_629)" fill-opacity="0.14"></path><path d="M689 710.81C689 705.944 693.504 702 699.061 702H844.939C850.496 702 855 705.944 855 710.81V767.19C855 772.056 850.496 776 844.939 776H699.061C693.504 776 689 772.056 689 767.19V710.81Z" fill="url(#paint5_linear_1266_629)" fill-opacity="0.14"></path><path d="M719.367 742H718.393L722.097 731.818H723.091L726.795 742H725.82L722.629 733.026H722.559L719.367 742ZM720.068 738.097H725.119V738.933H720.068V738.097ZM731.619 742.159C730.936 742.159 730.341 741.988 729.834 741.647C729.33 741.306 728.939 740.838 728.661 740.245C728.382 739.652 728.243 738.976 728.243 738.217C728.243 737.451 728.384 736.77 728.666 736.173C728.951 735.577 729.345 735.109 729.849 734.771C730.353 734.43 730.938 734.259 731.604 734.259C732.114 734.259 732.577 734.359 732.991 734.558C733.405 734.753 733.747 735.03 734.015 735.388C734.287 735.742 734.458 736.157 734.527 736.631H733.632C733.539 736.2 733.316 735.832 732.961 735.527C732.61 735.219 732.162 735.065 731.619 735.065C731.132 735.065 730.701 735.197 730.326 735.462C729.952 735.724 729.658 736.09 729.446 736.561C729.237 737.028 729.133 737.57 729.133 738.187C729.133 738.807 729.236 739.355 729.441 739.832C729.647 740.306 729.935 740.678 730.306 740.946C730.681 741.214 731.118 741.349 731.619 741.349C731.957 741.349 732.265 741.286 732.543 741.16C732.825 741.031 733.061 740.848 733.249 740.613C733.442 740.378 733.571 740.098 733.637 739.773H734.532C734.466 740.233 734.302 740.644 734.04 741.006C733.781 741.364 733.445 741.645 733.031 741.851C732.62 742.056 732.149 742.159 731.619 742.159ZM739.692 742.159C739.009 742.159 738.414 741.988 737.907 741.647C737.403 741.306 737.012 740.838 736.734 740.245C736.455 739.652 736.316 738.976 736.316 738.217C736.316 737.451 736.457 736.77 736.739 736.173C737.024 735.577 737.418 735.109 737.922 734.771C738.426 734.43 739.011 734.259 739.677 734.259C740.187 734.259 740.65 734.359 741.064 734.558C741.478 734.753 741.82 735.03 742.088 735.388C742.36 735.742 742.531 736.157 742.6 736.631H741.705C741.612 736.2 741.389 735.832 741.034 735.527C740.683 735.219 740.235 735.065 739.692 735.065C739.205 735.065 738.774 735.197 738.399 735.462C738.025 735.724 737.731 736.09 737.519 736.561C737.31 737.028 737.206 737.57 737.206 738.187C737.206 738.807 737.309 739.355 737.514 739.832C737.72 740.306 738.008 740.678 738.379 740.946C738.754 741.214 739.191 741.349 739.692 741.349C740.03 741.349 740.338 741.286 740.616 741.16C740.898 741.031 741.134 740.848 741.322 740.613C741.515 740.378 741.644 740.098 741.71 739.773H742.605C742.539 740.233 742.375 740.644 742.113 741.006C741.854 741.364 741.518 741.645 741.104 741.851C740.693 742.056 740.222 742.159 739.692 742.159ZM747.869 742.159C747.157 742.159 746.54 741.993 746.02 741.662C745.499 741.327 745.097 740.865 744.812 740.275C744.53 739.682 744.389 738.999 744.389 738.227C744.389 737.458 744.53 736.775 744.812 736.178C745.097 735.578 745.489 735.109 745.99 734.771C746.494 734.43 747.075 734.259 747.735 734.259C748.149 734.259 748.549 734.335 748.933 734.488C749.318 734.637 749.662 734.867 749.967 735.179C750.275 735.487 750.519 735.877 750.698 736.347C750.877 736.815 750.966 737.368 750.966 738.008V738.445H745.001V737.665H750.062C750.062 737.174 749.962 736.733 749.763 736.342C749.568 735.948 749.294 735.636 748.943 735.408C748.595 735.179 748.192 735.065 747.735 735.065C747.251 735.065 746.825 735.194 746.457 735.452C746.089 735.711 745.801 736.052 745.592 736.477C745.387 736.901 745.282 737.365 745.279 737.869V738.336C745.279 738.942 745.383 739.473 745.592 739.927C745.804 740.378 746.104 740.727 746.492 740.976C746.88 741.224 747.339 741.349 747.869 741.349C748.23 741.349 748.547 741.292 748.819 741.18C749.094 741.067 749.324 740.916 749.51 740.727C749.699 740.535 749.841 740.325 749.937 740.096L750.778 740.369C750.661 740.691 750.471 740.987 750.206 741.259C749.944 741.531 749.616 741.75 749.221 741.915C748.83 742.078 748.38 742.159 747.869 742.159ZM758.327 736.039L757.517 736.268C757.437 736.039 757.325 735.832 757.179 735.646C757.033 735.461 756.842 735.313 756.607 735.204C756.375 735.094 756.087 735.04 755.742 735.04C755.225 735.04 754.801 735.162 754.469 735.408C754.138 735.653 753.972 735.969 753.972 736.357C753.972 736.685 754.085 736.952 754.31 737.158C754.539 737.36 754.89 737.521 755.364 737.64L756.518 737.923C757.157 738.079 757.636 738.326 757.954 738.664C758.276 739.002 758.437 739.426 758.437 739.937C758.437 740.368 758.317 740.75 758.079 741.085C757.84 741.42 757.507 741.683 757.079 741.876C756.655 742.065 756.163 742.159 755.603 742.159C754.857 742.159 754.242 741.992 753.758 741.657C753.274 741.319 752.965 740.832 752.829 740.195L753.679 739.987C753.788 740.441 754.002 740.784 754.32 741.016C754.642 741.248 755.064 741.364 755.588 741.364C756.175 741.364 756.643 741.233 756.995 740.971C757.346 740.706 757.522 740.374 757.522 739.977C757.522 739.668 757.419 739.41 757.214 739.201C757.008 738.989 756.697 738.833 756.279 738.734L755.031 738.435C754.368 738.276 753.878 738.024 753.559 737.68C753.241 737.335 753.082 736.907 753.082 736.397C753.082 735.976 753.197 735.607 753.425 735.288C753.654 734.967 753.969 734.715 754.37 734.533C754.771 734.35 755.228 734.259 755.742 734.259C756.441 734.259 757 734.418 757.417 734.737C757.838 735.051 758.142 735.486 758.327 736.039ZM765.785 736.039L764.975 736.268C764.895 736.039 764.782 735.832 764.637 735.646C764.491 735.461 764.3 735.313 764.065 735.204C763.833 735.094 763.544 735.04 763.2 735.04C762.683 735.04 762.258 735.162 761.927 735.408C761.596 735.653 761.43 735.969 761.43 736.357C761.43 736.685 761.543 736.952 761.768 737.158C761.997 737.36 762.348 737.521 762.822 737.64L763.975 737.923C764.615 738.079 765.094 738.326 765.412 738.664C765.734 739.002 765.894 739.426 765.894 739.937C765.894 740.368 765.775 740.75 765.536 741.085C765.298 741.42 764.965 741.683 764.537 741.876C764.113 742.065 763.621 742.159 763.061 742.159C762.315 742.159 761.7 741.992 761.216 741.657C760.732 741.319 760.422 740.832 760.286 740.195L761.137 739.987C761.246 740.441 761.46 740.784 761.778 741.016C762.099 741.248 762.522 741.364 763.046 741.364C763.632 741.364 764.101 741.233 764.453 740.971C764.804 740.706 764.98 740.374 764.98 739.977C764.98 739.668 764.877 739.41 764.671 739.201C764.466 738.989 764.154 738.833 763.737 738.734L762.489 738.435C761.826 738.276 761.335 738.024 761.017 737.68C760.699 737.335 760.54 736.907 760.54 736.397C760.54 735.976 760.654 735.607 760.883 735.288C761.112 734.967 761.427 734.715 761.828 734.533C762.229 734.35 762.686 734.259 763.2 734.259C763.899 734.259 764.458 734.418 764.875 734.737C765.296 735.051 765.599 735.486 765.785 736.039ZM775.496 742H772.513V731.818H775.675C776.646 731.818 777.477 732.02 778.166 732.425C778.859 732.829 779.389 733.409 779.757 734.165C780.125 734.92 780.309 735.827 780.309 736.884C780.309 737.951 780.12 738.868 779.742 739.634C779.368 740.396 778.821 740.981 778.102 741.388C777.386 741.796 776.517 742 775.496 742ZM773.443 741.165H775.442C776.317 741.165 777.049 740.992 777.639 740.648C778.229 740.303 778.672 739.811 778.967 739.171C779.262 738.531 779.409 737.769 779.409 736.884C779.406 736.006 779.26 735.25 778.972 734.617C778.687 733.984 778.262 733.499 777.699 733.161C777.139 732.822 776.446 732.653 775.621 732.653H773.443V741.165ZM784.791 742.174C784.33 742.174 783.91 742.085 783.528 741.906C783.147 741.723 782.844 741.461 782.619 741.12C782.393 740.775 782.28 740.358 782.28 739.867C782.28 739.489 782.352 739.171 782.494 738.913C782.637 738.654 782.839 738.442 783.101 738.276C783.363 738.111 783.673 737.98 784.03 737.884C784.388 737.787 784.783 737.713 785.214 737.66C785.641 737.607 786.003 737.56 786.298 737.521C786.596 737.481 786.823 737.418 786.979 737.332C787.134 737.246 787.212 737.106 787.212 736.914V736.735C787.212 736.215 787.057 735.805 786.745 735.507C786.437 735.205 785.993 735.055 785.413 735.055C784.862 735.055 784.413 735.176 784.065 735.418C783.721 735.66 783.479 735.945 783.339 736.273L782.499 735.969C782.672 735.552 782.91 735.219 783.215 734.97C783.52 734.718 783.861 734.538 784.239 734.428C784.617 734.316 785 734.259 785.388 734.259C785.679 734.259 785.983 734.297 786.298 734.374C786.616 734.45 786.911 734.582 787.182 734.771C787.454 734.957 787.675 735.217 787.844 735.552C788.013 735.883 788.097 736.304 788.097 736.815V742H787.212V740.792H787.158C787.052 741.017 786.894 741.236 786.685 741.448C786.477 741.66 786.215 741.834 785.9 741.97C785.585 742.106 785.215 742.174 784.791 742.174ZM784.91 741.364C785.381 741.364 785.789 741.259 786.133 741.05C786.478 740.842 786.743 740.565 786.929 740.22C787.118 739.872 787.212 739.489 787.212 739.072V737.968C787.146 738.031 787.035 738.087 786.879 738.137C786.727 738.187 786.549 738.232 786.347 738.271C786.148 738.308 785.95 738.339 785.751 738.366C785.552 738.392 785.373 738.415 785.214 738.435C784.783 738.488 784.415 738.571 784.11 738.684C783.805 738.797 783.571 738.952 783.409 739.151C783.247 739.347 783.165 739.599 783.165 739.907C783.165 740.371 783.331 740.731 783.663 740.986C783.994 741.238 784.41 741.364 784.91 741.364ZM793.739 734.364V735.134H790.095V734.364H793.739ZM791.233 732.534H792.123V740.006C792.123 740.325 792.178 740.575 792.287 740.757C792.397 740.936 792.539 741.064 792.715 741.14C792.891 741.213 793.078 741.249 793.277 741.249C793.393 741.249 793.492 741.243 793.575 741.229C793.658 741.213 793.731 741.196 793.794 741.18L793.983 741.98C793.897 742.013 793.79 742.043 793.665 742.07C793.539 742.099 793.383 742.114 793.197 742.114C792.872 742.114 792.559 742.043 792.258 741.901C791.959 741.758 791.714 741.546 791.522 741.264C791.33 740.982 791.233 740.633 791.233 740.215V732.534ZM798.162 742.174C797.701 742.174 797.28 742.085 796.899 741.906C796.518 741.723 796.214 741.461 795.989 741.12C795.764 740.775 795.651 740.358 795.651 739.867C795.651 739.489 795.722 739.171 795.865 738.913C796.007 738.654 796.21 738.442 796.471 738.276C796.733 738.111 797.043 737.98 797.401 737.884C797.759 737.787 798.153 737.713 798.584 737.66C799.012 737.607 799.373 737.56 799.668 737.521C799.966 737.481 800.193 737.418 800.349 737.332C800.505 737.246 800.583 737.106 800.583 736.914V736.735C800.583 736.215 800.427 735.805 800.116 735.507C799.807 735.205 799.363 735.055 798.783 735.055C798.233 735.055 797.784 735.176 797.436 735.418C797.091 735.66 796.849 735.945 796.71 736.273L795.87 735.969C796.042 735.552 796.281 735.219 796.586 734.97C796.891 734.718 797.232 734.538 797.61 734.428C797.988 734.316 798.37 734.259 798.758 734.259C799.05 734.259 799.353 734.297 799.668 734.374C799.986 734.45 800.281 734.582 800.553 734.771C800.825 734.957 801.045 735.217 801.214 735.552C801.383 735.883 801.468 736.304 801.468 736.815V742H800.583V740.792H800.528C800.422 741.017 800.265 741.236 800.056 741.448C799.847 741.66 799.585 741.834 799.27 741.97C798.955 742.106 798.586 742.174 798.162 742.174ZM798.281 741.364C798.752 741.364 799.159 741.259 799.504 741.05C799.849 740.842 800.114 740.565 800.299 740.22C800.488 739.872 800.583 739.489 800.583 739.072V737.968C800.517 738.031 800.406 738.087 800.25 738.137C800.097 738.187 799.92 738.232 799.718 738.271C799.519 738.308 799.32 738.339 799.121 738.366C798.922 738.392 798.743 738.415 798.584 738.435C798.153 738.488 797.786 738.571 797.481 738.684C797.176 738.797 796.942 738.952 796.78 739.151C796.617 739.347 796.536 739.599 796.536 739.907C796.536 740.371 796.702 740.731 797.033 740.986C797.365 741.238 797.781 741.364 798.281 741.364ZM809.233 736.039L808.422 736.268C808.343 736.039 808.23 735.832 808.084 735.646C807.938 735.461 807.748 735.313 807.512 735.204C807.28 735.094 806.992 735.04 806.647 735.04C806.13 735.04 805.706 735.162 805.375 735.408C805.043 735.653 804.877 735.969 804.877 736.357C804.877 736.685 804.99 736.952 805.215 737.158C805.444 737.36 805.795 737.521 806.269 737.64L807.423 737.923C808.063 738.079 808.541 738.326 808.86 738.664C809.181 739.002 809.342 739.426 809.342 739.937C809.342 740.368 809.223 740.75 808.984 741.085C808.745 741.42 808.412 741.683 807.985 741.876C807.56 742.065 807.068 742.159 806.508 742.159C805.762 742.159 805.148 741.992 804.664 741.657C804.18 741.319 803.87 740.832 803.734 740.195L804.584 739.987C804.693 740.441 804.907 740.784 805.225 741.016C805.547 741.248 805.97 741.364 806.493 741.364C807.08 741.364 807.549 741.233 807.9 740.971C808.251 740.706 808.427 740.374 808.427 739.977C808.427 739.668 808.324 739.41 808.119 739.201C807.913 738.989 807.602 738.833 807.184 738.734L805.936 738.435C805.273 738.276 804.783 738.024 804.465 737.68C804.147 737.335 803.987 736.907 803.987 736.397C803.987 735.976 804.102 735.607 804.331 735.288C804.559 734.967 804.874 734.715 805.275 734.533C805.676 734.35 806.134 734.259 806.647 734.259C807.347 734.259 807.905 734.418 808.323 734.737C808.744 735.051 809.047 735.486 809.233 736.039ZM814.647 742.159C813.934 742.159 813.318 741.993 812.798 741.662C812.277 741.327 811.874 740.865 811.589 740.275C811.308 739.682 811.167 738.999 811.167 738.227C811.167 737.458 811.308 736.775 811.589 736.178C811.874 735.578 812.267 735.109 812.768 734.771C813.271 734.43 813.853 734.259 814.513 734.259C814.927 734.259 815.326 734.335 815.711 734.488C816.095 734.637 816.44 734.867 816.745 735.179C817.053 735.487 817.297 735.877 817.476 736.347C817.655 736.815 817.744 737.368 817.744 738.008V738.445H811.778V737.665H816.839C816.839 737.174 816.74 736.733 816.541 736.342C816.346 735.948 816.072 735.636 815.721 735.408C815.373 735.179 814.97 735.065 814.513 735.065C814.029 735.065 813.603 735.194 813.235 735.452C812.867 735.711 812.579 736.052 812.37 736.477C812.164 736.901 812.06 737.365 812.057 737.869V738.336C812.057 738.942 812.161 739.473 812.37 739.927C812.582 740.378 812.882 740.727 813.27 740.976C813.658 741.224 814.117 741.349 814.647 741.349C815.008 741.349 815.325 741.292 815.597 741.18C815.872 741.067 816.102 740.916 816.288 740.727C816.476 740.535 816.619 740.325 816.715 740.096L817.555 740.369C817.439 740.691 817.249 740.987 816.984 741.259C816.722 741.531 816.394 741.75 815.999 741.915C815.608 742.078 815.157 742.159 814.647 742.159ZM822.982 734.364V735.134H819.338V734.364H822.982ZM820.476 732.534H821.366V740.006C821.366 740.325 821.421 740.575 821.53 740.757C821.64 740.936 821.782 741.064 821.958 741.14C822.134 741.213 822.321 741.249 822.52 741.249C822.636 741.249 822.735 741.243 822.818 741.229C822.901 741.213 822.974 741.196 823.037 741.18L823.226 741.98C823.14 742.013 823.034 742.043 822.908 742.07C822.782 742.099 822.626 742.114 822.44 742.114C822.115 742.114 821.802 742.043 821.501 741.901C821.202 741.758 820.957 741.546 820.765 741.264C820.573 740.982 820.476 740.633 820.476 740.215V732.534ZM830.266 736.039L829.456 736.268C829.376 736.039 829.263 735.832 829.117 735.646C828.972 735.461 828.781 735.313 828.546 735.204C828.314 735.094 828.025 735.04 827.681 735.04C827.164 735.04 826.739 735.162 826.408 735.408C826.076 735.653 825.911 735.969 825.911 736.357C825.911 736.685 826.023 736.952 826.249 737.158C826.478 737.36 826.829 737.521 827.303 737.64L828.456 737.923C829.096 738.079 829.575 738.326 829.893 738.664C830.215 739.002 830.375 739.426 830.375 739.937C830.375 740.368 830.256 740.75 830.017 741.085C829.779 741.42 829.446 741.683 829.018 741.876C828.594 742.065 828.102 742.159 827.541 742.159C826.796 742.159 826.181 741.992 825.697 741.657C825.213 741.319 824.903 740.832 824.767 740.195L825.617 739.987C825.727 740.441 825.941 740.784 826.259 741.016C826.58 741.248 827.003 741.364 827.527 741.364C828.113 741.364 828.582 741.233 828.933 740.971C829.285 740.706 829.46 740.374 829.46 739.977C829.46 739.668 829.358 739.41 829.152 739.201C828.947 738.989 828.635 738.833 828.218 738.734L826.97 738.435C826.307 738.276 825.816 738.024 825.498 737.68C825.18 737.335 825.021 736.907 825.021 736.397C825.021 735.976 825.135 735.607 825.364 735.288C825.593 734.967 825.907 734.715 826.308 734.533C826.71 734.35 827.167 734.259 827.681 734.259C828.38 734.259 828.938 734.418 829.356 734.737C829.777 735.051 830.08 735.486 830.266 736.039Z" fill="white"></path><line x1="899" y1="393" x2="899" y2="522" stroke="#02C27D" stroke-width="2" stroke-dasharray="2 2"></line><defs><filter id="filter0_f_1266_629" x="0.925781" y="0.0385742" width="1228.15" height="1207.82" filterUnits="userSpaceOnUse" color-interpolation-filters="sRGB"><feFlood flood-opacity="0" result="BackgroundImageFix"></feFlood><feBlend mode="normal" in="SourceGraphic" in2="BackgroundImageFix" result="shape"></feBlend><feGaussianBlur stdDeviation="234.386" result="effect1_foregroundBlur_1266_629"></feGaussianBlur></filter><linearGradient id="paint0_linear_1266_629" x1="608.5" y1="347" x2="609" y2="444.5" gradientUnits="userSpaceOnUse"><stop stop-color="#095FAF"></stop><stop offset="1" stop-color="#02C27D"></stop></linearGradient><linearGradient id="paint1_linear_1266_629" x1="320" y1="528" x2="320.434" y2="625.501" gradientUnits="userSpaceOnUse"><stop stop-color="#095FAF"></stop><stop offset="1" stop-color="#02C27D"></stop></linearGradient><linearGradient id="paint2_linear_1266_629" x1="900" y1="532" x2="900.434" y2="629.501" gradientUnits="userSpaceOnUse"><stop stop-color="#095FAF"></stop><stop offset="1" stop-color="#02C27D"></stop></linearGradient><linearGradient id="paint3_linear_1266_629" x1="571.21" y1="524.5" x2="817.152" y2="737.095" gradientUnits="userSpaceOnUse"><stop stop-color="#43B2F0"></stop><stop offset="1" stop-color="#2D5CF3"></stop></linearGradient><linearGradient id="paint4_linear_1266_629" x1="489" y1="702" x2="489.341" y2="800.662" gradientUnits="userSpaceOnUse"><stop stop-color="#095FAF"></stop><stop offset="1" stop-color="#02C27D"></stop></linearGradient><linearGradient id="paint5_linear_1266_629" x1="772" y1="702" x2="772.386" y2="787.893" gradientUnits="userSpaceOnUse"><stop stop-color="#095FAF"></stop><stop offset="1" stop-color="#02C27D"></stop></linearGradient></defs></svg>